<?xml version="1.0" standalone="no"?>
<!DOCTYPE svg PUBLIC "-//W3C//DTD SVG 20010904//EN"
 "http://www.w3.org/TR/2001/REC-SVG-20010904/DTD/svg10.dtd">
<svg version="1.0" xmlns="http://www.w3.org/2000/svg"
 width="1000.000000pt" height="1000.000000pt" viewBox="0 0 1000.000000 1000.000000"
 preserveAspectRatio="xMidYMid meet">
<metadata>
Created by potrace 1.14, written by Peter Selinger 2001-2017
</metadata>
<g transform="translate(0.000000,1000.000000) scale(0.100000,-0.100000)"
fill="#000000" stroke="none">
<path d="M4868 9995 c-2 -2 -65 -6 -140 -9 -76 -4 -148 -9 -160 -11 -13 -2
-55 -6 -95 -10 -39 -3 -82 -8 -95 -10 -13 -2 -59 -9 -103 -15 -94 -12 -108
-15 -245 -41 -208 -40 -293 -60 -475 -114 -709 -209 -1323 -575 -1855 -1105
-63 -63 -149 -153 -190 -200 -41 -47 -77 -87 -80 -90 -15 -15 -96 -117 -159
-200 -39 -52 -75 -99 -79 -105 -28 -35 -171 -258 -225 -351 -78 -135 -196
-368 -244 -483 -19 -46 -39 -91 -43 -100 -14 -25 -86 -226 -125 -346 -60 -185
-132 -471 -161 -645 -3 -14 -9 -47 -14 -75 -5 -27 -12 -68 -15 -90 -3 -23 -7
-52 -10 -65 -2 -13 -7 -46 -10 -74 -3 -28 -7 -67 -10 -86 -9 -61 -17 -153 -30
-350 -10 -143 -11 -647 -1 -795 12 -188 13 -194 37 -405 5 -47 12 -96 14 -110
2 -14 7 -41 10 -60 18 -111 28 -164 45 -245 10 -49 21 -101 24 -115 2 -14 12
-54 21 -90 8 -36 17 -72 19 -80 34 -137 112 -375 181 -551 68 -173 221 -489
307 -631 62 -103 212 -330 252 -380 12 -14 32 -41 46 -59 159 -213 462 -528
695 -724 39 -32 75 -63 80 -67 48 -41 253 -190 350 -255 283 -189 691 -398
965 -495 395 -140 788 -241 1100 -283 25 -3 56 -8 70 -10 14 -2 48 -7 75 -10
28 -3 66 -8 85 -10 19 -2 67 -7 105 -11 39 -3 84 -7 100 -9 201 -24 1069 -24
1215 -1 14 3 66 7 115 11 50 4 104 8 120 10 17 2 57 7 90 10 33 4 74 8 90 10
17 2 53 7 80 10 74 9 110 14 210 31 50 8 106 17 125 20 19 3 67 12 105 20 39
8 86 17 105 20 53 8 259 61 352 90 279 87 618 260 847 432 428 321 753 721
951 1172 23 52 46 104 51 115 65 141 160 500 185 695 3 25 7 58 10 75 12 97
23 335 14 335 -4 0 -25 -13 -46 -28 -535 -386 -1285 -788 -1759 -943 -87 -29
-344 -90 -435 -104 -19 -3 -46 -8 -60 -10 -14 -3 -36 -8 -50 -10 -26 -6 -63
-11 -140 -20 -25 -3 -54 -7 -66 -9 -12 -2 -57 -7 -100 -11 -43 -4 -86 -9 -95
-10 -56 -11 -291 -19 -509 -19 -258 0 -391 6 -555 25 -49 5 -110 12 -135 14
-25 3 -56 7 -70 9 -14 3 -47 8 -73 11 -58 7 -278 48 -367 69 -36 8 -76 17 -90
19 -29 6 -102 24 -145 38 -16 5 -70 21 -120 35 -243 71 -497 165 -685 256
-142 68 -179 96 -340 259 -256 258 -462 574 -586 903 -19 50 -39 100 -44 111
-23 53 -106 343 -125 440 -27 135 -65 378 -60 384 4 3 1535 6 3403 6 l3397 0
6 45 c7 51 3 647 -5 755 -3 39 -8 107 -11 153 -3 46 -8 98 -10 115 -2 18 -6
64 -10 102 -3 39 -8 81 -10 95 -4 25 -10 76 -20 160 -3 25 -10 74 -16 110 -6
36 -12 79 -15 95 -2 17 -13 77 -24 135 -119 628 -312 1171 -585 1645 -59 103
-233 371 -257 396 -7 8 -33 41 -57 74 -25 33 -65 85 -90 115 -25 30 -57 68
-71 85 -14 16 -104 109 -200 206 -149 150 -317 298 -424 374 -15 11 -47 34
-70 51 -284 211 -706 422 -1091 547 -124 41 -294 89 -358 103 -12 3 -40 9 -62
13 -59 13 -195 39 -235 46 -19 3 -42 8 -50 10 -8 2 -37 6 -65 10 -27 3 -57 8
-65 10 -17 4 -95 13 -185 20 -33 3 -76 7 -95 10 -97 13 -741 30 -752 20z m537
-1739 c39 -4 88 -9 110 -11 191 -19 435 -85 605 -163 72 -34 214 -114 218
-124 2 -4 8 -8 13 -8 20 0 166 -119 260 -211 203 -200 340 -412 440 -680 52
-142 108 -374 124 -514 4 -33 9 -71 11 -85 9 -58 20 -357 15 -416 -1 -9 -560
-12 -2136 -12 -1968 0 -2135 2 -2131 17 3 9 8 39 12 66 3 28 8 59 10 70 2 11
6 31 9 45 4 25 43 211 50 240 2 8 13 49 25 90 11 41 23 82 25 90 10 43 82 238
122 330 153 355 378 654 648 861 144 110 348 224 490 274 28 9 59 21 70 26 34
14 245 67 340 85 182 33 489 47 670 30z"/>
</g>
</svg>
