<?xml version="1.0" encoding="UTF-8"?>
<svg id="Capa_1" data-name="Capa 1" xmlns="http://www.w3.org/2000/svg" viewBox="0 0 118.55 118.55">
  <defs>
    <style>
      .cls-1 {
        fill: #008a88;
      }

      .cls-2 {
        fill: #fff;
      }
    </style>
  </defs>
  <rect class="cls-1" width="118.55" height="118.55" rx="18.29" ry="18.29"/>
  <g>
    <path class="cls-2" d="M71.18,83.43c-5.54-3.36-29.06-15.35-31.2-16.44-.07-.04-.06-.13,0-.17l16.48-9.11c1.7-.94,3.05-2.46,3.6-4.32,.41-1.4,.47-3.16-.45-5.14-1.05-2.25-2.59-3.19-3.97-3.53-1.49-.38-3.07-.04-4.39,.75l-26.14,15.71s-4.72,2.36-6.07,8.43c-.09,.39-.15,.77-.2,1.14-.54,4.06,1.62,8,5.22,9.95l40.17,21.84s0,0,0,0c.06,.03,7.99,3.46,10.79-3.37,1.93-4.71,1.74-8.04,1.43-9.67,0,0-.14-2.97-5.25-6.07Z"/>
    <path class="cls-2" d="M47.36,35.12c5.54,3.36,29.06,15.35,31.2,16.44,.07,.04,.06,.13,0,.17l-16.48,9.11c-1.7,.94-3.05,2.46-3.6,4.32-.41,1.4-.47,3.16,.45,5.14,1.05,2.25,2.59,3.19,3.97,3.53,1.49,.38,3.07,.04,4.39-.75l26.14-15.71s4.72-2.36,6.07-8.43c.09-.39,.15-.77,.2-1.14,.54-4.06-1.62-8-5.22-9.95L54.33,16.01s0,0,0,0c-.06-.03-7.99-3.46-10.79,3.37-1.93,4.71-1.74,8.04-1.43,9.67,0,0,.14,2.97,5.25,6.07Z"/>
  </g>
</svg>