<?xml version="1.0" encoding="UTF-8"?>
<svg id="Capa_1" data-name="Capa 1" xmlns="http://www.w3.org/2000/svg" viewBox="0 0 118.55 118.55">
  <defs>
    <style>
      .cls-1 {
        fill: #fff;
      }

      .cls-2 {
        fill: #fd7c00;
      }
    </style>
  </defs>
  <rect class="cls-2" y="0" width="118.55" height="118.55" rx="18.29" ry="18.29"/>
  <g>
    <path class="cls-1" d="M100.78,41.47l-9.47-3.45c-2.78-1.01-5.86,.42-6.87,3.2l-15.76,43.34h22.13l13.18-36.23c1.01-2.78-.42-5.86-3.2-6.87Z"/>
    <path class="cls-1" d="M73.58,49.03l-9.47-3.45c-2.78-1.01-5.86,.42-6.87,3.2l-13.01,35.77h22.13l10.43-28.66c1.01-2.78-.42-5.86-3.2-6.87Z"/>
    <path class="cls-1" d="M46.38,56.6l-9.47-3.45c-2.78-1.01-5.86,.42-6.87,3.2l-10.26,28.21h22.13l7.68-21.1c1.01-2.78-.42-5.86-3.2-6.87Z"/>
  </g>
</svg>