<?xml version="1.0" encoding="UTF-8"?>
<svg id="Capa_1" data-name="Capa 1" xmlns="http://www.w3.org/2000/svg" viewBox="0 0 118.55 118.55">
  <defs>
    <style>
      .cls-1 {
        fill: #fff;
      }

      .cls-2 {
        fill: #7b0090;
      }
    </style>
  </defs>
  <path class="cls-1" d="M100.38,74.04c-1.71-20.87-13.92-36.06-24.9-42.3-1.48-.84-3.37,.02-3.74,1.71l-.05,23.09c-.05,.27-.27,.64-.48,.8-.82,.62-1.98,.05-1.98-1V31.89c0-2.96-2.23-5.51-5.17-5.7h-9.59c-2.94,.18-5.17,2.73-5.17,5.7v24.42c0,1.05-.82,1.64-1.75,1.21-.36-.16-.62-.5-.71-.87l-.06-23.21c-.36-1.69-2.23-2.57-3.74-1.71-10.62,6.04-22.63,20.63-24.71,40.25H58.81c.5,0,.93,.41,.93,.93s-.41,.93-.93,.93c0,0-40.67,.16-40.67,.25-1.53,.14-2.73,1.41-2.73,2.98v5.22c0,1.64,1.34,2.98,2.96,2.98h1.5c.19,0,.36,.16,.36,.35,0,1.91,1.55,3.48,3.46,3.48l34.11,6.73c1.59,.31,3.22,.3,4.81-.02l32.24-6.71c1.91,0,3.46-1.57,3.46-3.49,0-.18,.16-.34,.36-.34h1.5c1.64,0,2.96-1.33,2.96-2.96v-5.24c-.02-1.62-1.23-2.92-2.76-3.05h0Z"/>
  <g>
    <rect class="cls-2" width="118.55" height="118.55" rx="18.29" ry="18.29"/>
    <g>
      <path class="cls-1" d="M18.14,72.24c-1.53,.14-2.73,1.41-2.73,2.98v5.22c0,1.64,1.34,2.98,2.96,2.98h1.5c.19,0,.36,.16,.36,.35,0,1.91,1.55,3.48,3.46,3.48l34.11,6.73c1.59,.31,3.22,.3,4.81-.02l32.24-6.71c1.91,0,3.46-1.57,3.46-3.49,0-.18,.16-.34,.36-.34h1.5c1.64,0,2.96-1.33,2.96-2.96v-5.24c-.02-1.62-1.23-2.92-2.76-3.05h0s0-.02,0-.03H27.02c-5.17,.03-8.88,.07-8.88,.09Z"/>
      <path class="cls-1" d="M75.48,29.87c-1.48-.84-3.37,.02-3.74,1.71l-.05,23.09c-.05,.27-.27,.64-.48,.8-.82,.61-1.98,.05-1.98-1V30.03c0-2.96-2.23-5.51-5.17-5.7h-9.59c-2.94,.18-5.17,2.73-5.17,5.7v24.42c0,1.05-.82,1.64-1.75,1.21-.36-.16-.61-.5-.71-.87l-.06-23.21c-.36-1.69-2.23-2.57-3.74-1.71-10.6,6.03-22.6,20.6-24.7,40.17H100.17c-2.33-19.77-14.08-34.14-24.68-40.17Z"/>
    </g>
  </g>
</svg>