<?xml version="1.0" encoding="UTF-8"?>
<svg id="Capa_1" data-name="Capa 1" xmlns="http://www.w3.org/2000/svg" viewBox="0 0 118.55 118.55">
  <defs>
    <style>
      .cls-1 {
        fill: #fff;
      }

      .cls-2 {
        fill: #fcce00;
      }
    </style>
  </defs>
  <rect class="cls-2" width="118.55" height="118.55" rx="18.29" ry="18.29"/>
  <path class="cls-1" d="M89.53,51.39h-25.28s-4.09,.91-4.09,5.85c0,6.1,4.99,5.52,4.99,5.52h5.3s0,.03,0,.04v12.46c0,3.91-2.12,5.92-6.38,6.04-4.26-.61-7.89-2.39-10.9-5.34-4-3.92-5.99-9.33-5.99-16.2,0-8.09,2.53-14.04,7.58-17.84,3.68-2.83,8.04-4.23,13.1-4.23h17.13c1.64,0,3.31-.43,5.01-1.27,2.3-1.2,3.46-2.95,3.46-5.24s-1.16-4.04-3.45-5.24c-1.64-.84-3.31-1.27-5.01-1.27h-24.59c-8.06,0-15.35,2.26-21.84,6.78-8.99,6.23-13.47,15.64-13.47,28.21s4.49,22.06,13.45,28.41c6.49,4.52,13.75,6.78,21.81,6.78h10.51c4.71,0,9.26-1.4,13.65-4.21,5.95-3.91,8.95-9.41,8.95-16.5v-11.36s0-.03,0-.04h0s.75-11.37-3.9-11.37Z"/>
</svg>