<?xml version="1.0" encoding="UTF-8"?>
<svg id="Capa_1" data-name="Capa 1" xmlns="http://www.w3.org/2000/svg" viewBox="0 0 118.55 118.55">
  <defs>
    <style>
      .cls-1 {
        fill: #fff;
      }

      .cls-2 {
        fill: #6ab02e;
      }
    </style>
  </defs>
  <rect class="cls-2" width="118.55" height="118.55" rx="18.29" ry="18.29"/>
  <g>
    <path class="cls-1" d="M30.98,81.74c3.36-5.54,15.35-29.06,16.44-31.2,.04-.07,.13-.06,.17,0l9.11,16.48c.94,1.7,2.46,3.05,4.32,3.6,1.4,.41,3.16,.47,5.14-.45,2.25-1.05,3.19-2.59,3.53-3.97,.38-1.49,.04-3.07-.75-4.39l-15.71-26.14s-2.36-4.72-8.43-6.07c-.39-.09-.77-.15-1.14-.2-4.06-.54-8,1.62-9.95,5.22L11.87,74.76s0,0,0,0c-.03,.06-3.46,7.99,3.37,10.79,4.71,1.93,8.04,1.74,9.67,1.43,0,0,2.97-.14,6.07-5.25Z"/>
    <path class="cls-1" d="M85.43,35.25c-1.04-1.95-2.58-3.61-4.54-4.64-1.87-.99-4.39-1.65-7.37-.8-6.6,1.9-7.72,5.64-7.72,5.64,0,0-1.34,3.43,1.12,8.08,2.16,4.07,17.09,31.67,20.78,38.49,.84,1.55,2.02,2.91,3.5,3.87,2.17,1.42,5.57,2.74,9.41,.67,4.28-2.3,5.47-3.44,5.47-3.44,0,0,3.22-2.48,.13-8.67-2.67-5.36-16.98-32.09-20.79-39.2Z"/>
  </g>
</svg>