<?xml version="1.0" encoding="UTF-8"?>
<svg id="Capa_1" data-name="Capa 1" xmlns="http://www.w3.org/2000/svg" viewBox="0 0 118.55 118.55">
  <defs>
    <style>
      .cls-1 {
        fill: #fff;
      }

      .cls-2 {
        fill: #2e2e2e;
      }
    </style>
  </defs>
  <rect class="cls-2" y="0" width="118.55" height="118.55" rx="18.29" ry="18.29"/>
  <g>
    <path class="cls-1" d="M78.9,93.75c-1.5-.02-3.3-.72-4.38-1.71-3.58-3.28-7.36-7.04-11.57-11.49-.81-.85-1.22-2.13-1.61-3.37l-.14-.44c-.52-1.58-1.43-3.49-3.92-4.2-2.84-.81-4.14-1.56-4.48-2.59-.36-1.08,.3-2.58,2.26-5.19l.08-.11-.09-.1c-1.34-1.38-2.66-2.75-3.99-4.13l-.51-.53c-3.81-3.95-7.72-8.01-11.65-11.91-.85-.85-1.88-1.53-2.87-2.18-.99-.66-1.93-1.28-2.75-2.07-2.24-2.17-4.34-4.57-6.22-7.12-.74-1-.35-2.26,1.06-3.37,.45-.36,.89-.53,1.33-.53,.51,0,1.04,.24,1.6,.72,.54,.46,1.09,.91,1.63,1.35,2.2,1.77,4.27,3.45,5.45,6.29,.64,1.54,2.06,2.77,3.43,3.96,.58,.5,1.11,.96,1.6,1.45,1.58,1.56,3.17,3.11,4.76,4.66,2.82,2.75,5.74,5.6,8.57,8.48,.69,.7,1.28,1.16,1.97,1.16s1.36-.54,1.79-.95c.8-.76,1.7-1.18,2.54-1.18,1.33,0,2.4,1.04,2.79,2.72,.86,3.73,2.75,5.59,6.11,6.04,.67,.09,1.47,.54,2.14,1.21,4.66,4.64,8.18,8.24,11.44,11.65,2.37,2.49,2.9,5.03,1.56,7.56-2.16,4.09-4.58,5.92-7.83,5.92h-.11Z"/>
    <path class="cls-1" d="M67.52,59.16c-1.73-1.67-3.04-2.64-4.6-2.64-1.16,0-2.42,.49-4.08,1.28l-.58,.27-.67-.78c-.61-.71-1.25-1.45-1.76-2.26l-.18-.29,.07-.33c.07-.33,.29-.84,.56-1.14l.36-.4c1.38-1.51,2.8-3.08,4.39-4.36,2.34-1.89,3.28-4.24,3.05-7.61-.39-5.54,2.81-10.72,7.94-12.87,1.96-.82,3.93-1.24,5.86-1.24,2.76,0,5.49,.85,8.12,2.52,.29,.19,.53,.36,.7,.5l.79,.67-.83,.63c-.19,.15-.46,.31-.78,.49l-.7,.39c-2.5,1.41-5.09,2.86-7.71,4.16-1.63,.81-2.29,1.9-2.27,3.74,.02,1.73,.19,3.26,2.13,4.49,1.24,.79,2.29,1.16,3.32,1.16s2.12-.4,3.29-1.21c1.7-1.19,3.52-2.14,5.44-3.15,0,0,.82-.43,1.16-.61l1.22-.65v1.38c0,3.77-1.29,7.27-3.64,9.87-2.44,2.69-5.79,4.18-9.45,4.18-.25,0-.49,0-.74-.02-.35-.02-.7-.03-1.04-.03-3.59,0-6.19,1.19-8.17,3.75l-.57,.73-.67-.65Z"/>
    <path class="cls-1" d="M33.77,91.64c-.4,0-.82-.04-1.24-.13-1.99-.42-3.62-1.64-4.48-3.36-.88-1.75-.88-3.76,0-5.66,.64-1.37,1.62-2.76,2.85-4,4.25-4.29,8.56-8.54,12.73-12.64l3.8-3.75c.14-.14,.3-.27,.49-.42l.48-.38,.72,.5c.6,.41,1.17,.8,1.48,1.33,.43,.73,.69,1.95,.38,2.66-1.45,3.31-1.11,5.01,1.48,7.29l.22,.19c.2,.17,.38,.33,.51,.47l.42,.47-.34,.53c-.09,.14-.23,.3-.4,.47-3.23,3.14-6.56,6.46-9.49,9.39l-.24,.24c-1.44,1.44-2.88,2.88-4.33,4.31-1.74,1.72-3.29,2.49-5.04,2.49Z"/>
  </g>
</svg>