<?xml version="1.0" encoding="utf-8"?>
<!-- Generator: Adobe Illustrator 26.5.0, SVG Export Plug-In . SVG Version: 6.00 Build 0)  -->
<svg version="1.1" id="Layer_1" xmlns="http://www.w3.org/2000/svg" xmlns:xlink="http://www.w3.org/1999/xlink" x="0px" y="0px"
	 viewBox="0 0 792 612" style="enable-background:new 0 0 792 612;" xml:space="preserve">
<style type="text/css">
	.st0{fill:#68BEB4;}
	.st1{fill:#878787;}
	.st2{fill:url(#SVGID_1_);}
	.st3{fill:url(#SVGID_00000098909991061732710230000012263395442036123815_);}
	.st4{fill:url(#SVGID_00000073000518272605283230000010408572046341667485_);}
	.st5{fill:url(#SVGID_00000164491566129776537090000016363074633581797773_);}
	.st6{fill:url(#SVGID_00000181795197669404575430000002679551924729843082_);}
	.st7{fill:url(#SVGID_00000028317243183680442350000012198827279140064669_);}
	.st8{fill:url(#SVGID_00000154386406462305931860000006995020508522391174_);}
	.st9{fill:url(#SVGID_00000132047918542073891960000008442844874595877036_);}
	.st10{fill:#FFC629;}
	.st11{fill:#00AF9A;}
	.st12{fill:#FED063;}
	.st13{fill:none;}
	.st14{fill:url(#SVGID_00000157287902659784679640000013429104522458830217_);}
	.st15{fill:url(#SVGID_00000127043733526063182030000003537908401847231667_);}
	.st16{fill:url(#SVGID_00000105414082196557291560000004313678582585265571_);}
	.st17{fill:url(#SVGID_00000119814581098781149780000002759607647711909815_);}
	.st18{fill:url(#SVGID_00000124130583792634375770000018356724770214218430_);}
	.st19{fill:url(#SVGID_00000119832369137327859430000016158470376962104453_);}
	.st20{fill:url(#SVGID_00000143596589062319042510000010395856034526202025_);}
	.st21{fill:url(#SVGID_00000135684020531656082910000015151637101073686163_);}
</style>
<path class="st0" d="M1068.81,1645.56"/>
<g>
	<path class="st1" d="M249.03,361.93c-1.67,1.65-3.83,2.42-6.18,2.42c-6.04,0-8.59-4.16-8.62-8.38c-0.02-4.25,2.74-8.57,8.62-8.57
		c2.2,0,4.29,0.84,5.96,2.48l-2.04,1.97c-1.07-1.04-2.51-1.53-3.92-1.53c-3.92,0-5.62,2.92-5.6,5.64c0.02,2.69,1.58,5.5,5.6,5.5
		c1.42,0,3.02-0.58,4.08-1.65L249.03,361.93z"/>
	<path class="st1" d="M315.47,355.94c-0.04,4.2-2.62,8.41-8.34,8.41c-5.71,0-8.36-4.11-8.36-8.38c0-4.27,2.74-8.57,8.36-8.57
		C312.73,347.4,315.51,351.69,315.47,355.94z M301.79,356.01c0.07,2.67,1.51,5.53,5.34,5.53c3.83,0,5.27-2.88,5.32-5.55
		c0.04-2.74-1.49-5.8-5.32-5.8C303.3,350.18,301.72,353.27,301.79,356.01z"/>
	<path class="st1" d="M370.25,347.72v13.42h8.36v2.83h-11.42v-16.25H370.25z"/>
	<path class="st1" d="M442.34,363.97h-12.17c0-5.41,0-10.85,0-16.25h12.17v2.97h-9.13v3.74h8.8v2.86h-8.8v3.67h9.13V363.97z"/>
	<path class="st1" d="M499.23,351.69c-1.09-1.05-2.72-1.62-4.14-1.62c-3.48,0-5.6,2.65-5.6,5.99c0,2.67,1.56,5.43,5.6,5.43
		c1.28,0,2.39-0.28,3.67-1.3v-2.88h-4.16v-2.74h6.97v6.85c-1.6,1.83-3.62,2.93-6.48,2.93c-6.1,0-8.59-4.02-8.59-8.29
		c0-4.57,2.85-8.8,8.59-8.8c2.18,0,4.37,0.84,6.04,2.48L499.23,351.69z"/>
	<path class="st1" d="M546.55,363.97v-16.25h3.04v16.25H546.55z"/>
	<path class="st1" d="M610.89,355.94c-0.04,4.2-2.62,8.41-8.34,8.41c-5.71,0-8.36-4.11-8.36-8.38c0-4.27,2.74-8.57,8.36-8.57
		C608.15,347.4,610.94,351.69,610.89,355.94z M597.22,356.01c0.07,2.67,1.51,5.53,5.34,5.53c3.83,0,5.27-2.88,5.32-5.55
		c0.04-2.74-1.49-5.8-5.32-5.8C598.73,350.18,597.15,353.27,597.22,356.01z"/>
	<linearGradient id="SVGID_1_" gradientUnits="userSpaceOnUse" x1="164.7881" y1="527.235" x2="164.7881" y2="371.6335">
		<stop  offset="0" style="stop-color:#9D9D9C;stop-opacity:0.8"/>
		<stop  offset="0.1649" style="stop-color:#A1A1A0;stop-opacity:0.668"/>
		<stop  offset="0.345" style="stop-color:#ACACAB;stop-opacity:0.524"/>
		<stop  offset="0.5322" style="stop-color:#BDBDBD;stop-opacity:0.3742"/>
		<stop  offset="0.7243" style="stop-color:#D5D5D5;stop-opacity:0.2205"/>
		<stop  offset="0.9183" style="stop-color:#F2F2F2;stop-opacity:0.0653"/>
		<stop  offset="1" style="stop-color:#FFFFFF;stop-opacity:0"/>
	</linearGradient>
	<path class="st2" d="M205.25,453.67c-3.19,0-6.04-0.86-8.48-2.54c-2.83-1.96-4.27-5.54-4.27-10.63v-60.74
		c-0.26,0.48-0.52,0.99-0.8,1.5l-14.52,27.74c-0.99,1.89-1.98,4.12-2.93,6.61c-1,2.62-1.93,5.11-2.78,7.49
		c-1.04,2.75-1.99,5.53-2.82,8.31l-0.73,2.42h-4.83c-0.85,0-1.66-0.06-2.41-0.18c-1.77-0.3-3.13-1.38-3.76-2.97
		c-1.55-3.64-3.48-7.52-5.7-11.45c-2.3-4.07-4.6-8.12-6.9-12.14l-11.93-20.7c-1.25-2.16-2.42-4.19-3.5-6.1
		c0.1,7.53,0.29,15.35,0.56,23.35c0.43,12.52,0.65,24.88,0.65,36.72c0,2.02-0.05,3.68-0.15,5.07c-0.13,1.74-0.44,3.12-0.96,4.22
		c-0.71,1.5-1.88,2.62-3.4,3.22c-1.11,0.45-2.49,0.67-4.2,0.67c-1.99,0-3.8-0.3-5.39-0.89c-0.78-0.23-1.54-0.51-2.28-0.83
		l-2.64-1.14l0.69-2.79c0.18-0.71,0.48-2.33,0.93-6.06c0.27-2.64,0.54-6.59,0.77-11.69c0.24-5.15,0.36-12.27,0.36-21.13
		c0-1.42-0.03-3.37-0.07-5.83c-0.05-2.49-0.1-5.25-0.14-8.28c-0.04-2.54-0.29-18.56-0.29-18.56c-0.05-2.89-0.12-5.47-0.21-7.76
		c-0.1-2.31-0.14-4.01-0.15-5.22c-0.19-3.39-0.35-6.07-0.49-8.05c-0.13-1.87-0.29-3.3-0.46-4.25c-0.18-1.07-0.31-1.76-0.39-2.11
		l-0.73-3.02l2.95-0.99c1.04-0.35,2.38-0.64,4.24-0.93c1.77-0.27,3.51-0.4,5.19-0.4c2.64,0,5.15,0.18,7.43,0.54
		c3.16,0.51,5.37,1.81,6.58,3.87c0.95,1.79,1.9,3.49,2.88,5.18c1.07,1.85,2.14,3.74,3.2,5.68l18.39,32.47
		c1.54,2.81,2.92,5.39,4.11,7.72c0.44-0.93,0.93-1.94,1.47-3.02c1.96-3.96,4.25-8.42,6.81-13.25c2.54-4.79,5.2-9.8,7.98-15.03
		c2.87-5.4,5.35-10.16,7.59-14.55c1.71-3.32,3.58-5.66,5.73-7.19c2.26-1.61,5.08-2.43,8.37-2.43c1.19,0,2.52,0.03,4,0.08
		c1.64,0.06,3.48,0.3,5.48,0.72l2.7,0.57v13.26c0,3.85-0.02,7.79-0.07,11.83c-0.05,4.02-0.08,7.94-0.08,11.76v10.21
		c0,9.47,0.1,18.98,0.29,28.26c0.19,9.24,0.9,18.7,2.13,28.11l0.43,3.29l-3.27,0.51c-1.71,0.27-3.34,0.57-4.83,0.89
		C208.81,453.47,207.02,453.67,205.25,453.67z"/>
	
		<linearGradient id="SVGID_00000106857882127422647050000007913861385717547426_" gradientUnits="userSpaceOnUse" x1="270.6943" y1="527.2355" x2="270.6943" y2="371.6324">
		<stop  offset="0" style="stop-color:#9D9D9C;stop-opacity:0.8"/>
		<stop  offset="0.1649" style="stop-color:#A1A1A0;stop-opacity:0.668"/>
		<stop  offset="0.345" style="stop-color:#ACACAB;stop-opacity:0.524"/>
		<stop  offset="0.5322" style="stop-color:#BDBDBD;stop-opacity:0.3742"/>
		<stop  offset="0.7243" style="stop-color:#D5D5D5;stop-opacity:0.2205"/>
		<stop  offset="0.9183" style="stop-color:#F2F2F2;stop-opacity:0.0653"/>
		<stop  offset="1" style="stop-color:#FFFFFF;stop-opacity:0"/>
	</linearGradient>
	<path style="fill:url(#SVGID_00000106857882127422647050000007913861385717547426_);" d="M269.97,454.39
		c-6.49,0-12.3-1.12-17.27-3.31c-4.98-2.2-9.21-5.22-12.58-8.96c-3.36-3.72-5.91-8.03-7.59-12.8c-1.65-4.7-2.49-9.65-2.49-14.72
		c0-5.53,0.88-10.93,2.63-16.05c1.76-5.17,4.39-9.83,7.83-13.85c3.47-4.04,7.84-7.31,13.01-9.72c5.18-2.4,11.2-3.62,17.9-3.62
		c6.46,0,12.25,1.06,17.21,3.14c4.97,2.09,9.2,4.94,12.58,8.48c3.37,3.54,5.94,7.63,7.63,12.17c1.67,4.49,2.52,9.15,2.52,13.84
		c0,5.7-0.88,11.3-2.61,16.65c-1.76,5.42-4.4,10.31-7.87,14.55c-3.52,4.3-7.91,7.77-13.06,10.32
		C282.6,453.09,276.6,454.39,269.97,454.39z M269.83,384.77c-2.44,0-4.5,0.66-6.32,2c-1.98,1.46-3.63,3.43-4.91,5.84
		c-1.38,2.58-2.43,5.59-3.13,8.95c-0.72,3.45-1.08,7.01-1.08,10.6c0,3.76,0.41,7.5,1.21,11.13c0.79,3.54,1.95,6.72,3.46,9.45
		c1.42,2.56,3.22,4.63,5.34,6.14c1.97,1.42,4.26,2.1,7.01,2.1c2.4,0,4.45-0.68,6.25-2.09c2-1.56,3.7-3.67,5.04-6.28
		c1.42-2.77,2.51-6,3.21-9.6c0.72-3.71,1.09-7.55,1.09-11.43c0-3.45-0.4-6.92-1.2-10.29c-0.78-3.29-1.93-6.23-3.43-8.76
		c-1.41-2.37-3.21-4.3-5.36-5.74C274.97,385.43,272.62,384.77,269.83,384.77z"/>
	
		<linearGradient id="SVGID_00000031917965684410059700000016291017024935815861_" gradientUnits="userSpaceOnUse" x1="345.3779" y1="527.2352" x2="345.3779" y2="371.6328">
		<stop  offset="0" style="stop-color:#9D9D9C;stop-opacity:0.8"/>
		<stop  offset="0.1649" style="stop-color:#A1A1A0;stop-opacity:0.668"/>
		<stop  offset="0.345" style="stop-color:#ACACAB;stop-opacity:0.524"/>
		<stop  offset="0.5322" style="stop-color:#BDBDBD;stop-opacity:0.3742"/>
		<stop  offset="0.7243" style="stop-color:#D5D5D5;stop-opacity:0.2205"/>
		<stop  offset="0.9183" style="stop-color:#F2F2F2;stop-opacity:0.0653"/>
		<stop  offset="1" style="stop-color:#FFFFFF;stop-opacity:0"/>
	</linearGradient>
	<path style="fill:url(#SVGID_00000031917965684410059700000016291017024935815861_);" d="M347.79,454.39
		c-4.73,0-8.78-0.82-12.02-2.45c-3.3-1.64-5.99-3.99-7.99-6.97c-1.92-2.85-3.28-6.24-4.04-10.08c-0.71-3.6-1.07-7.57-1.07-11.8
		c0-2.32,0.02-4.71,0.07-7.18c0.05-2.47,0.12-4.87,0.22-7.2c0.1-2.28,0.17-4.39,0.22-6.34c0.05-1.93,0.07-3.55,0.07-4.88
		c0-2.97-0.07-5.29-0.2-6.9c-0.14-1.69-0.43-2.48-0.59-2.8c-0.17-0.34-0.3-0.4-0.36-0.43c-0.76-0.34-1.82-0.73-3.14-1.17l-2.32-0.78
		v-11.89h3.4c0.53,0,1.76-0.2,4.09-1.5c2.09-1.18,4.2-2.63,6.26-4.34c2.05-1.69,3.91-3.46,5.54-5.26c1.98-2.2,2.54-3.28,2.7-3.65
		l1.23-2.94l9.07,3.15l-2.67,14.53h7.72c3.2,0,4.44-0.34,4.82-0.49l0.14-0.05l0.15-0.04c0.46-0.13,0.75-0.27,0.9-0.37l4.17-2.51
		l0.92,4.78c0.13,0.71,0.2,1.58,0.2,2.65v1.87c0,4.27-1.22,7.24-3.62,8.81c-1.97,1.29-4.53,1.92-7.83,1.92h-2.59
		c-1.26,0-2.6-0.05-4-0.14c-0.57,0-1.16-0.01-1.76-0.02l-0.19,6.52c-0.09,2.73-0.14,5.71-0.14,8.87v8.99c0,3.46,0.12,6.79,0.35,9.89
		c0.21,2.89,0.71,5.42,1.46,7.52c0.67,1.86,1.57,3.24,2.74,4.24c1.01,0.87,2.45,1.28,4.42,1.28c1.31,0,2.71-0.27,4.15-0.8
		c1.61-0.59,3.06-1.27,4.32-2.02c1.59-0.97,3.18-2.07,4.72-3.24l2.11-1.62l4.72,3.77l-0.86,2.31c-1.26,3.37-2.97,6.47-5.09,9.23
		c-2.03,2.48-4.63,4.65-7.79,6.53C357.03,453.39,352.79,454.39,347.79,454.39z"/>
	
		<linearGradient id="SVGID_00000157997636312008279570000010007097769700887186_" gradientUnits="userSpaceOnUse" x1="447.3896" y1="527.2356" x2="447.3896" y2="371.6338">
		<stop  offset="0" style="stop-color:#9D9D9C;stop-opacity:0.8"/>
		<stop  offset="0.1649" style="stop-color:#A1A1A0;stop-opacity:0.668"/>
		<stop  offset="0.345" style="stop-color:#ACACAB;stop-opacity:0.524"/>
		<stop  offset="0.5322" style="stop-color:#BDBDBD;stop-opacity:0.3742"/>
		<stop  offset="0.7243" style="stop-color:#D5D5D5;stop-opacity:0.2205"/>
		<stop  offset="0.9183" style="stop-color:#F2F2F2;stop-opacity:0.0653"/>
		<stop  offset="1" style="stop-color:#FFFFFF;stop-opacity:0"/>
	</linearGradient>
	<path style="fill:url(#SVGID_00000157997636312008279570000010007097769700887186_);" d="M454.3,454.38
		c-3.4-0.21-6.54-0.87-9.35-1.95c-2.47-0.86-4.99-2.28-7.37-4.18c-2.64-2.09-4.57-5.04-5.73-8.76c-1.05-3.24-2.32-7.28-3.81-12.09
		c-1.48-4.77-3.09-9.67-4.79-14.56c-1.67-4.82-3.38-9.62-5.08-14.25c-1.63-4.43-3.12-8.09-4.42-10.89
		c-0.72-1.43-1.52-2.94-2.33-4.37c-0.67-1.19-1.51-2.21-2.56-3.12l-1.18-1.02v-5.07l2.74-0.54c1.49-0.29,3.09-0.57,4.76-0.82
		c1.81-0.26,4.06-0.4,6.68-0.4c2.93,0,5.75,0.54,8.4,1.61c3.25,1.32,5.41,3.73,6.25,6.97c0.76,3.05,1.86,6.89,3.26,11.43
		c1.45,4.7,3.06,9.6,4.78,14.56c1.77,5.12,3.56,10.21,5.38,15.28c0.73,2.04,1.45,4.02,2.16,5.91c2-5.97,3.66-11.3,4.96-15.9
		c1.83-6.48,3.32-12.07,4.43-16.63c1.1-4.57,1.99-8.2,2.67-10.89c0.73-2.91,1.48-5.18,2.32-6.91c1.11-2.29,2.64-3.82,4.56-4.56
		c1.5-0.59,3.48-0.88,6.05-0.88c1.19,0,2.28,0.05,3.26,0.16c1.12,0.13,2.05,0.32,2.84,0.58c0.76,0.22,1.46,0.48,2.02,0.75l1.89,0.94
		v4.39l-1.19,1.02c-0.32,0.28-0.9,0.86-1.79,2.05c-0.62,0.86-1.35,2.09-2.14,3.62c-0.8,1.55-1.66,3.62-2.56,6.13l-22.59,62.53
		L454.3,454.38z"/>
	
		<linearGradient id="SVGID_00000039856153620073665480000001222352540083668888_" gradientUnits="userSpaceOnUse" x1="522.5854" y1="527.2355" x2="522.5854" y2="371.6324">
		<stop  offset="0" style="stop-color:#9D9D9C;stop-opacity:0.8"/>
		<stop  offset="0.1649" style="stop-color:#A1A1A0;stop-opacity:0.668"/>
		<stop  offset="0.345" style="stop-color:#ACACAB;stop-opacity:0.524"/>
		<stop  offset="0.5322" style="stop-color:#BDBDBD;stop-opacity:0.3742"/>
		<stop  offset="0.7243" style="stop-color:#D5D5D5;stop-opacity:0.2205"/>
		<stop  offset="0.9183" style="stop-color:#F2F2F2;stop-opacity:0.0653"/>
		<stop  offset="1" style="stop-color:#FFFFFF;stop-opacity:0"/>
	</linearGradient>
	<path style="fill:url(#SVGID_00000039856153620073665480000001222352540083668888_);" d="M507.58,454.39c-3.51,0-6.7-0.6-9.47-1.79
		c-2.78-1.18-5.18-2.86-7.13-4.99c-1.92-2.09-3.41-4.55-4.43-7.32c-1-2.72-1.5-5.6-1.5-8.58c0-5.9,1.53-10.96,4.55-15.03
		c2.88-3.9,6.56-7.04,10.94-9.33c4.21-2.2,8.8-3.81,13.64-4.78c3.48-0.69,6.82-1.16,9.97-1.4c-0.06-2.01-0.23-3.86-0.5-5.51
		c-0.3-1.87-0.86-3.44-1.66-4.67c-0.7-1.09-1.62-1.89-2.81-2.44c-1.31-0.6-3.13-0.91-5.41-0.91c-3.02,0-6.08,0.74-9.1,2.19
		c-3.2,1.54-6.06,3.41-8.48,5.58l-2.41,2.16l-4.22-4.28l0.52-1.89c0.7-2.55,2.04-5.09,4-7.54c1.86-2.34,4.12-4.47,6.72-6.33
		c2.62-1.87,5.6-3.38,8.87-4.48c3.32-1.12,6.78-1.69,10.29-1.69c5.62,0,10.07,0.78,13.62,2.38c3.63,1.65,6.46,3.93,8.44,6.77
		c1.92,2.76,3.17,5.97,3.73,9.54c0.51,3.23,0.76,6.6,0.76,10.02c0,3.82-0.07,8.05-0.22,12.55c-0.14,4.35-0.21,8.6-0.21,12.62v1.72
		c0,1.4,0.05,2.99,0.14,4.71c0.08,1.58,0.31,3.08,0.68,4.49c0.3,1.13,0.77,2.04,1.43,2.8c0.26,0.3,0.63,0.57,1.54,0.57
		c0.73,0,1.4-0.18,2.03-0.55l0.19-0.1c0.46-0.23,0.92-0.5,1.37-0.79l2-1.33l4.66,3.51l-1.1,2.47c-0.97,2.18-2.38,4.08-4.19,5.64
		c-1.44,1.33-3.43,2.58-5.82,3.63c-2.47,1.1-5.53,1.65-9.06,1.65c-1.68,0-3.41-0.2-5.13-0.58c-1.89-0.43-3.61-1.15-5.1-2.14
		c-1.5-1-2.74-2.32-3.7-3.94c-1.34,1.32-2.88,2.53-4.61,3.62C517.47,453.12,512.82,454.39,507.58,454.39z M522.2,414.7
		c-2.24,0.46-4.49,1.29-6.68,2.46c-2.09,1.13-3.86,2.64-5.39,4.63c-1.35,1.73-2.02,4.15-2.02,7.19c0,3.25,0.63,5.54,1.83,6.61
		c1.35,1.22,2.75,1.79,4.42,1.79c0.85,0,1.85-0.2,2.96-0.6c1.19-0.42,2.32-1.01,3.35-1.73c1-0.7,1.79-1.48,2.43-2.37
		c0.45-0.62,0.66-1.2,0.66-1.83c0-2.92,0.07-6.26,0.22-9.91c0.08-2.19,0.15-4.42,0.18-6.64L522.2,414.7z"/>
	
		<linearGradient id="SVGID_00000048483157479976437350000002501061043139313567_" gradientUnits="userSpaceOnUse" x1="588.1484" y1="527.2355" x2="588.1484" y2="371.6327">
		<stop  offset="0" style="stop-color:#9D9D9C;stop-opacity:0.8"/>
		<stop  offset="0.1649" style="stop-color:#A1A1A0;stop-opacity:0.668"/>
		<stop  offset="0.345" style="stop-color:#ACACAB;stop-opacity:0.524"/>
		<stop  offset="0.5322" style="stop-color:#BDBDBD;stop-opacity:0.3742"/>
		<stop  offset="0.7243" style="stop-color:#D5D5D5;stop-opacity:0.2205"/>
		<stop  offset="0.9183" style="stop-color:#F2F2F2;stop-opacity:0.0653"/>
		<stop  offset="1" style="stop-color:#FFFFFF;stop-opacity:0"/>
	</linearGradient>
	<path style="fill:url(#SVGID_00000048483157479976437350000002501061043139313567_);" d="M577.2,453.67
		c-1.67,0-3.24-0.22-4.65-0.65c-1.64-0.5-3.08-1.37-4.29-2.57c-1.21-1.21-2.13-2.83-2.72-4.81c-0.53-1.78-0.79-3.88-0.79-6.44
		c0-4.37,0.12-8.72,0.37-12.92c0.23-4.1,0.35-8.18,0.35-12.1c0-7.17-0.17-13.16-0.49-17.81c-0.33-4.67-0.69-8.42-1.06-11.15
		c-0.46-3.37-0.85-4.72-1.04-5.23c-0.35-0.94-0.58-1.52-0.68-1.75l-1.58-3.5l3.64-1.2c1.31-0.41,2.63-0.75,3.91-1.01
		c1.4-0.29,2.79-0.44,4.15-0.44c4.06,0,7.53,1.02,10.32,3.01c1.84,1.32,3.17,3.04,3.94,5.07c1.42-1.32,2.93-2.52,4.51-3.56
		c2.22-1.46,4.59-2.59,7.04-3.36c2.47-0.77,4.87-1.16,7.12-1.16c3.81,0,6.46,0.88,8.12,2.69c1.55,1.71,2.33,3.84,2.33,6.32
		c0,1.8-0.16,3.72-0.47,5.71c-0.32,2.04-0.82,3.96-1.47,5.7l-0.53,1.42l-3.53,1.39l-1.35-0.68c-2.2-1.1-4.23-2.03-6.03-2.77
		c-1.45-0.59-2.79-0.89-3.96-0.89c-2.05,0-3.67,0.46-4.95,1.42c-1.41,1.05-2.52,2.5-3.39,4.42c-0.96,2.13-1.64,4.73-2.03,7.73
		c-0.41,3.2-0.62,6.78-0.62,10.65c0,7.01,0.17,12.7,0.49,16.93c0.33,4.23,0.68,7.57,1.05,9.95c0.48,3.06,0.8,4.03,0.89,4.24
		c0.12,0.32,0.22,0.55,0.29,0.7c-0.32-0.62,1.75,4.5,0.27,4.5l-2.56,0.7c-1.73,0.27-3.45,0.57-5.1,0.91
		C580.79,453.48,578.94,453.67,577.2,453.67z"/>
	
		<linearGradient id="SVGID_00000134956902759472690490000001115846617465586840_" gradientUnits="userSpaceOnUse" x1="651.1577" y1="527.2355" x2="651.1577" y2="371.6324">
		<stop  offset="0" style="stop-color:#9D9D9C;stop-opacity:0.8"/>
		<stop  offset="0.1649" style="stop-color:#A1A1A0;stop-opacity:0.668"/>
		<stop  offset="0.345" style="stop-color:#ACACAB;stop-opacity:0.524"/>
		<stop  offset="0.5322" style="stop-color:#BDBDBD;stop-opacity:0.3742"/>
		<stop  offset="0.7243" style="stop-color:#D5D5D5;stop-opacity:0.2205"/>
		<stop  offset="0.9183" style="stop-color:#F2F2F2;stop-opacity:0.0653"/>
		<stop  offset="1" style="stop-color:#FFFFFF;stop-opacity:0"/>
	</linearGradient>
	<path style="fill:url(#SVGID_00000134956902759472690490000001115846617465586840_);" d="M653.14,454.39
		c-5.23,0-10.18-0.99-14.72-2.94c-4.55-1.96-8.52-4.75-11.8-8.29c-3.26-3.52-5.84-7.77-7.66-12.62c-1.81-4.82-2.74-10.14-2.74-15.79
		c0-5.32,0.86-10.62,2.55-15.74c1.7-5.14,4.16-9.8,7.31-13.83c3.19-4.08,7.15-7.43,11.76-9.95c4.7-2.56,10.04-3.87,15.87-3.87
		c5.08,0,9.54,0.7,13.26,2.09c3.73,1.38,6.88,3.2,9.34,5.39c2.56,2.28,4.44,4.95,5.59,7.94c1.11,2.86,1.67,5.74,1.67,8.55
		c0,4.34-1.08,8.07-3.21,11.09c-1.99,2.82-4.53,5.17-7.57,7c-2.97,1.78-6.33,3.05-9.99,3.8c-3.5,0.71-7,1.07-10.39,1.07
		c-2.37,0-4.66-0.25-6.8-0.74c-1.99-0.46-3.79-0.96-5.36-1.49c-0.2-0.07-0.4-0.14-0.6-0.21c0.23,2.18,0.61,4.23,1.15,6.13
		c0.89,3.15,2.19,5.88,3.85,8.13c1.61,2.17,3.53,3.8,5.89,4.96c2.34,1.16,5.15,1.74,8.36,1.74c2.63,0,5.15-0.36,7.49-1.08
		c2.5-0.76,4.74-1.63,6.66-2.6c2.34-1.08,4.45-2.35,6.35-3.82l2.36-1.82l4.33,4.31l-0.67,2c-1.31,3.9-3.4,7.41-6.21,10.44
		c-2.5,2.61-5.81,4.95-9.88,6.98C665.13,453.32,659.69,454.39,653.14,454.39z M639.74,402.43c0.51,0.19,1.1,0.38,1.77,0.58
		c1.13,0.33,2.43,0.61,3.87,0.83c1.41,0.21,2.81,0.32,4.17,0.32c1.3,0,2.59-0.19,3.84-0.57c1.2-0.36,2.25-0.9,3.22-1.65
		c0.91-0.7,1.64-1.6,2.23-2.74c0.56-1.07,0.84-2.45,0.84-4.09c0-1.45-0.16-2.86-0.49-4.22c-0.29-1.21-0.75-2.25-1.41-3.18
		c-0.63-0.89-1.42-1.59-2.41-2.15c-0.93-0.52-2.11-0.79-3.51-0.79c-1.71,0-3.11,0.58-4.4,1.83c-1.65,1.6-3.08,3.54-4.25,5.73
		c-1.22,2.29-2.14,4.6-2.74,6.86C640.09,400.59,639.87,401.64,639.74,402.43z"/>
	
		<linearGradient id="SVGID_00000080187405434859499470000010119645533278270849_" gradientUnits="userSpaceOnUse" x1="396.1577" y1="527.2344" x2="396.1577" y2="371.6335">
		<stop  offset="0" style="stop-color:#9D9D9C;stop-opacity:0.8"/>
		<stop  offset="0.1649" style="stop-color:#A1A1A0;stop-opacity:0.668"/>
		<stop  offset="0.345" style="stop-color:#ACACAB;stop-opacity:0.524"/>
		<stop  offset="0.5322" style="stop-color:#BDBDBD;stop-opacity:0.3742"/>
		<stop  offset="0.7243" style="stop-color:#D5D5D5;stop-opacity:0.2205"/>
		<stop  offset="0.9183" style="stop-color:#F2F2F2;stop-opacity:0.0653"/>
		<stop  offset="1" style="stop-color:#FFFFFF;stop-opacity:0"/>
	</linearGradient>
	<path style="fill:url(#SVGID_00000080187405434859499470000010119645533278270849_);" d="M394.24,453.67
		c-1.9,0-3.78-0.23-5.57-0.67c-2.02-0.51-3.84-1.4-5.4-2.66c-1.56-1.24-2.84-2.81-3.82-4.65c-1.03-1.92-1.55-4.3-1.55-7.06
		c0-4.22,0.1-8.44,0.29-12.53c0.19-4.08,0.28-8.13,0.28-12.06c0-6.96-0.13-12.82-0.38-17.42l-0.05-0.98l0.48-0.86
		c2.66-4.77,5.61-7.71,9.02-9c2.42-0.91,4.38-1.32,5.96-1.65c1.16-0.24,2.08-0.43,2.67-0.72l4.92-2.43l-0.02,5.49
		c-0.01,3.3-0.06,6.63-0.13,10.03c-0.1,3.96-0.17,7.81-0.21,11.54c-0.05,3.76-0.12,7.35-0.22,10.77c-0.09,3.36-0.14,6.39-0.14,9.04
		c0,1.56,0.05,3.22,0.14,4.92c0.08,1.5,0.3,2.89,0.66,4.12c0.26,0.91,0.67,1.61,1.23,2.15c0.14,0.14,0.54,0.51,1.76,0.51
		c0.73,0,1.4-0.18,2.03-0.55l0.18-0.1c0.46-0.23,0.93-0.5,1.37-0.8l2-1.33l4.66,3.51l-1.1,2.47c-0.97,2.18-2.38,4.08-4.19,5.64
		c-1.44,1.33-3.42,2.58-5.82,3.63C400.83,453.11,397.78,453.67,394.24,453.67z"/>
	<path class="st1" d="M115.07,448.69c0.29-1.15,0.62-3.3,1.01-6.47c0.29-2.78,0.55-6.76,0.79-11.94c0.24-5.18,0.36-12.28,0.36-21.29
		c0-1.44-0.03-3.4-0.07-5.9c-0.05-2.49-0.1-5.25-0.14-8.27c-0.05-3.02-0.1-6.13-0.15-9.35c-0.05-3.21-0.1-6.28-0.14-9.21
		c-0.05-2.92-0.12-5.54-0.22-7.84c-0.09-2.3-0.14-4.03-0.14-5.18c-0.19-3.45-0.36-6.19-0.5-8.2c-0.14-2.02-0.31-3.54-0.5-4.6
		c-0.19-1.15-0.34-1.92-0.43-2.3c0.86-0.29,2.09-0.55,3.67-0.79c1.58-0.24,3.14-0.36,4.67-0.36c2.49,0,4.79,0.17,6.9,0.5
		c2.11,0.34,3.5,1.08,4.17,2.23c0.86,1.63,1.82,3.36,2.88,5.18c1.05,1.83,2.11,3.7,3.16,5.61l18.41,32.51
		c1.63,2.97,3.04,5.63,4.24,7.98c1.2,2.35,2.03,4.19,2.52,5.54h0.72c0.76-2.02,2.13-5.01,4.1-8.99c1.96-3.98,4.22-8.37,6.76-13.16
		c2.54-4.79,5.2-9.8,7.98-15.03c2.78-5.23,5.32-10.09,7.62-14.6c1.44-2.78,3-4.77,4.68-5.97c1.68-1.2,3.81-1.8,6.4-1.8
		c1.15,0,2.45,0.03,3.88,0.07c1.44,0.05,3.07,0.26,4.89,0.65c0,3.16,0,6.67,0,10.5c0,3.84-0.02,7.76-0.07,11.79
		c-0.05,4.03-0.08,7.96-0.08,11.8c0,3.83,0,7.24,0,10.21c0,9.49,0.1,18.94,0.29,28.33c0.19,9.4,0.91,18.89,2.16,28.48
		c-1.83,0.28-3.5,0.6-5.03,0.93c-1.54,0.33-3.07,0.5-4.6,0.5c-2.5,0-4.68-0.64-6.54-1.94c-1.87-1.29-2.81-3.9-2.81-7.84v-73.35
		l-0.57-0.43c-0.48,1.15-1.3,2.83-2.45,5.04c-1.15,2.21-2.54,4.84-4.17,7.91l-14.53,27.76c-1.06,2.02-2.09,4.34-3.09,6.98
		c-1.01,2.64-1.94,5.15-2.81,7.55c-1.06,2.79-2.01,5.61-2.88,8.49h-2.3c-0.67,0-1.29-0.05-1.87-0.14c-0.57-0.1-0.96-0.39-1.15-0.87
		c-1.64-3.84-3.6-7.79-5.9-11.87c-2.3-4.08-4.6-8.13-6.9-12.15l-11.94-20.71c-2.11-3.64-3.98-6.93-5.61-9.85
		c-1.64-2.92-2.88-5.4-3.74-7.41l-0.58,0.58c0,11.32,0.22,23.23,0.65,35.74c0.43,12.51,0.65,24.72,0.65,36.6
		c0,1.92-0.05,3.53-0.14,4.82c-0.1,1.29-0.31,2.3-0.65,3.02c-0.34,0.72-0.86,1.22-1.58,1.51c-0.72,0.29-1.71,0.43-2.95,0.43
		c-1.63,0-3.07-0.24-4.31-0.72C116.41,449.22,115.74,448.98,115.07,448.69z"/>
	<path class="st1" d="M233.44,414.6c0-5.18,0.81-10.16,2.45-14.96c1.63-4.79,4.03-9.04,7.19-12.73c3.17-3.69,7.12-6.63,11.87-8.85
		c4.75-2.2,10.23-3.31,16.47-3.31c6.04,0,11.34,0.96,15.89,2.88c4.56,1.92,8.37,4.48,11.44,7.69c3.07,3.21,5.37,6.88,6.9,11.01
		c1.53,4.12,2.3,8.34,2.3,12.66c0,5.37-0.82,10.57-2.45,15.61c-1.63,5.04-4.05,9.52-7.26,13.45c-3.21,3.93-7.19,7.07-11.94,9.42
		c-4.75,2.35-10.19,3.52-16.33,3.52c-6.04,0-11.34-1.01-15.89-3.02c-4.56-2.02-8.37-4.72-11.43-8.12c-3.07-3.4-5.37-7.29-6.91-11.65
		C234.21,423.83,233.44,419.3,233.44,414.6z M250.99,412.16c0,4.03,0.43,7.98,1.3,11.86c0.86,3.89,2.13,7.34,3.81,10.36
		c1.68,3.02,3.79,5.44,6.33,7.26c2.54,1.83,5.54,2.74,8.99,2.74c3.17,0,5.94-0.94,8.34-2.81c2.4-1.87,4.39-4.34,5.97-7.41
		c1.58-3.07,2.75-6.57,3.52-10.5c0.77-3.93,1.15-7.96,1.15-12.08c0-3.74-0.43-7.43-1.29-11.07c-0.86-3.64-2.14-6.88-3.81-9.71
		c-1.68-2.83-3.81-5.11-6.4-6.83c-2.59-1.72-5.61-2.59-9.06-2.59c-3.17,0-5.95,0.89-8.34,2.67c-2.4,1.77-4.36,4.1-5.9,6.97
		c-1.54,2.87-2.69,6.16-3.46,9.85C251.37,404.56,250.99,408.32,250.99,412.16z"/>
	<path class="st1" d="M326.07,423.09c0-2.3,0.02-4.67,0.07-7.12c0.05-2.45,0.12-4.82,0.22-7.12c0.1-2.3,0.17-4.43,0.22-6.4
		c0.05-1.97,0.07-3.62,0.07-4.96c0-3.07-0.07-5.46-0.22-7.19c-0.14-1.73-0.46-3.07-0.94-4.03c-0.48-0.96-1.15-1.62-2.01-2.01
		c-0.86-0.38-2.01-0.82-3.45-1.3v-6.04c1.53,0,3.45-0.65,5.75-1.94c2.3-1.29,4.55-2.86,6.76-4.67c2.2-1.82,4.17-3.69,5.9-5.61
		c1.72-1.92,2.82-3.46,3.31-4.6l3.31,1.15l-2.88,15.68h11.79c2.78,0,4.79-0.24,6.04-0.72c0.67-0.19,1.25-0.43,1.73-0.72
		c0.09,0.49,0.14,1.16,0.14,2.02c0,0.87,0,1.49,0,1.87c0,3.07-0.7,5.06-2.08,5.96c-1.39,0.91-3.38,1.37-5.97,1.37
		c-0.48,0-1.34,0-2.59,0s-2.54-0.05-3.88-0.14c-1.63,0-3.36-0.05-5.18-0.14c-0.1,3.36-0.19,6.66-0.29,9.92
		c-0.1,2.78-0.14,5.78-0.14,8.99s0,6.21,0,8.99c0,3.55,0.12,6.93,0.36,10.14c0.24,3.22,0.79,6.02,1.65,8.41
		c0.87,2.4,2.11,4.29,3.74,5.68c1.63,1.39,3.84,2.09,6.62,2.09c1.72,0,3.5-0.34,5.32-1.01c1.82-0.67,3.46-1.44,4.89-2.3
		c1.73-1.06,3.4-2.21,5.03-3.45l0.72,0.57c-1.15,3.07-2.68,5.85-4.6,8.35c-1.73,2.11-4,4-6.83,5.68c-2.83,1.67-6.45,2.52-10.86,2.52
		c-4.22,0-7.72-0.7-10.5-2.09c-2.78-1.39-5.01-3.33-6.69-5.82c-1.68-2.49-2.85-5.44-3.52-8.85
		C326.4,430.83,326.07,427.12,326.07,423.09z"/>
	<path class="st1" d="M435.09,438.48c-1.05-3.26-2.33-7.29-3.81-12.08c-1.49-4.79-3.09-9.68-4.82-14.67
		c-1.72-4.99-3.43-9.75-5.11-14.31c-1.68-4.55-3.19-8.27-4.53-11.15c-0.77-1.53-1.58-3.06-2.45-4.6c-0.86-1.54-1.97-2.88-3.31-4.03
		v-0.72c1.44-0.28,2.97-0.55,4.6-0.79c1.63-0.24,3.69-0.36,6.18-0.36c2.49,0,4.87,0.45,7.12,1.37c2.25,0.91,3.67,2.47,4.24,4.68
		c0.77,3.07,1.87,6.93,3.31,11.58c1.44,4.65,3.04,9.54,4.82,14.67c1.77,5.13,3.57,10.24,5.39,15.32c1.82,5.08,3.55,9.64,5.18,13.66
		h0.72c3.26-9.3,5.83-17.26,7.69-23.88c1.87-6.62,3.36-12.2,4.46-16.75c1.1-4.56,1.99-8.18,2.66-10.86
		c0.67-2.68,1.37-4.77,2.09-6.25c0.72-1.49,1.63-2.45,2.73-2.88c1.1-0.43,2.71-0.65,4.82-0.65c1.05,0,2.02,0.05,2.88,0.14
		c0.86,0.1,1.58,0.24,2.16,0.43c0.67,0.19,1.2,0.38,1.58,0.57v0.72c-0.67,0.57-1.44,1.44-2.3,2.59c-0.77,1.06-1.58,2.43-2.45,4.1
		c-0.86,1.68-1.78,3.86-2.73,6.55l-21.72,60.12c-3.07-0.19-5.85-0.77-8.34-1.73c-2.21-0.77-4.37-1.99-6.47-3.67
		C437.59,443.93,436.05,441.55,435.09,438.48z"/>
	<path class="st1" d="M488.45,431.72c0-5.18,1.3-9.52,3.88-13.01c2.59-3.51,5.85-6.29,9.78-8.35c3.93-2.06,8.17-3.54,12.73-4.46
		c4.55-0.91,8.8-1.41,12.73-1.51v-1.3c0-2.97-0.19-5.63-0.58-7.98c-0.38-2.35-1.1-4.34-2.16-5.97c-1.06-1.63-2.47-2.85-4.24-3.67
		c-1.78-0.81-4.06-1.22-6.83-1.22c-3.55,0-7.07,0.84-10.57,2.52c-3.5,1.68-6.59,3.71-9.28,6.11l-0.57-0.58
		c0.57-2.1,1.7-4.21,3.38-6.32c1.67-2.11,3.69-4,6.04-5.68c2.35-1.68,5.01-3.02,7.98-4.03c2.97-1,6.04-1.51,9.2-1.51
		c5.08,0,9.16,0.7,12.23,2.08c3.07,1.39,5.42,3.26,7.05,5.61c1.63,2.35,2.69,5.06,3.17,8.12c0.48,3.07,0.72,6.23,0.72,9.49
		c0,3.84-0.07,7.98-0.22,12.44c-0.14,4.46-0.21,8.7-0.21,12.73v1.72c0,1.44,0.05,3.07,0.14,4.89c0.09,1.82,0.36,3.55,0.79,5.18
		c0.43,1.63,1.15,3.02,2.16,4.17c1.01,1.15,2.37,1.73,4.1,1.73c1.34,0,2.59-0.34,3.74-1.01c0.58-0.29,1.15-0.62,1.73-1.01l0.58,0.43
		c-0.77,1.72-1.87,3.21-3.31,4.46c-1.25,1.15-2.9,2.19-4.96,3.09c-2.06,0.91-4.63,1.37-7.7,1.37c-1.44,0-2.9-0.17-4.38-0.5
		c-1.49-0.34-2.8-0.88-3.96-1.65c-1.15-0.77-2.08-1.8-2.8-3.09c-0.72-1.29-1.08-2.89-1.08-4.81l-0.57-0.29
		c-1.63,3.07-4.15,5.68-7.55,7.84c-3.41,2.16-7.41,3.24-12.01,3.24c-3.07,0-5.78-0.51-8.13-1.51c-2.35-1-4.34-2.4-5.97-4.17
		c-1.63-1.77-2.88-3.84-3.74-6.19C488.88,436.78,488.45,434.31,488.45,431.72z M504.71,428.98c0,4.32,0.98,7.36,2.95,9.13
		c1.97,1.78,4.19,2.66,6.69,2.66c1.25,0,2.61-0.26,4.1-0.79c1.49-0.53,2.88-1.25,4.17-2.16c1.3-0.91,2.37-1.96,3.24-3.17
		c0.86-1.2,1.3-2.47,1.3-3.81c0-2.88,0.07-6.13,0.22-9.78c0.14-3.64,0.21-7.29,0.21-10.94c-1.44,0.29-3.45,0.7-6.04,1.22
		c-2.59,0.53-5.13,1.46-7.62,2.81c-2.5,1.34-4.65,3.19-6.47,5.54C505.62,422.06,504.71,425.15,504.71,428.98z"/>
	<path class="st1" d="M568.13,439.2c0-4.31,0.12-8.56,0.36-12.73c0.24-4.17,0.36-8.27,0.36-12.3c0-7.29-0.17-13.31-0.5-18.05
		c-0.34-4.75-0.7-8.53-1.08-11.36c-0.38-2.83-0.79-4.82-1.22-5.97c-0.43-1.15-0.7-1.82-0.79-2.01c1.24-0.39,2.45-0.7,3.6-0.94
		c1.15-0.24,2.3-0.36,3.45-0.36c3.36,0,6.13,0.79,8.34,2.38c2.21,1.58,3.31,3.86,3.31,6.83c0,0.57-0.05,1.18-0.14,1.8
		c-0.1,0.63-0.24,1.18-0.43,1.66c-0.19,0.57-0.34,1.2-0.43,1.87l0.58,0.15c0.96-2.3,2.28-4.34,3.96-6.11
		c1.68-1.77,3.5-3.31,5.47-4.61c1.96-1.29,4.03-2.28,6.18-2.95c2.16-0.67,4.2-1.01,6.12-1.01c2.78,0,4.65,0.53,5.61,1.58
		c0.96,1.06,1.44,2.4,1.44,4.03c0,1.63-0.14,3.35-0.43,5.17c-0.29,1.82-0.72,3.5-1.29,5.04l-0.72,0.28
		c-2.3-1.15-4.39-2.11-6.25-2.88c-1.87-0.76-3.62-1.15-5.25-1.15c-2.78,0-5.11,0.7-6.97,2.09c-1.87,1.39-3.36,3.31-4.46,5.75
		c-1.1,2.44-1.87,5.34-2.3,8.7c-0.43,3.36-0.65,7.05-0.65,11.08c0,7.09,0.17,12.82,0.5,17.19c0.34,4.36,0.7,7.76,1.08,10.21
		c0.38,2.44,0.74,4.1,1.08,4.96c0.33,0.87,0.55,1.3,0.65,1.3c-1.82,0.28-3.58,0.6-5.25,0.93c-1.68,0.33-3.29,0.5-4.82,0.5
		c-1.35,0-2.57-0.17-3.67-0.5c-1.1-0.34-2.06-0.91-2.88-1.72c-0.81-0.81-1.44-1.94-1.87-3.38
		C568.35,443.22,568.13,441.4,568.13,439.2z"/>
	<path class="st1" d="M409.63,440.92c-0.57,0.38-1.15,0.72-1.73,1.01c-1.15,0.67-2.4,1.01-3.74,1.01c-1.73,0-3.09-0.48-4.1-1.44
		c-1.01-0.95-1.73-2.18-2.16-3.66c-0.43-1.49-0.7-3.11-0.79-4.89c-0.1-1.77-0.15-3.48-0.15-5.11c0-2.69,0.05-5.73,0.15-9.13
		c0.09-3.41,0.17-6.98,0.22-10.72c0.05-3.74,0.12-7.6,0.21-11.58c0.08-3.38,0.12-6.69,0.13-9.96c-2.06,1.01-4.79,0.94-8.94,2.5
		c-3.35,1.27-5.7,4.69-7.26,7.48c0.25,4.66,0.38,10.52,0.38,17.6c0,4.03-0.1,8.1-0.29,12.22c-0.19,4.12-0.29,8.25-0.29,12.37
		c0,2.2,0.38,4.03,1.15,5.46c0.77,1.44,1.75,2.63,2.95,3.59c1.2,0.96,2.56,1.63,4.1,2.01c1.53,0.38,3.12,0.57,4.75,0.57
		c3.07,0,5.63-0.46,7.7-1.37c2.06-0.91,3.72-1.94,4.96-3.09c1.44-1.24,2.54-2.73,3.31-4.46L409.63,440.92z"/>
	<path class="st1" d="M380.93,388.95c1.26-1.96,3.98-4.52,6.96-5.45c4.74-1.48,6.08-1.85,8.54-3.21c-0.59-0.89-1.38-1.68-2.4-2.36
		c-2.44-1.63-5.3-2.45-8.55-2.45c-1.15,0-2.3,0.13-3.46,0.36c-1.15,0.24-2.35,0.55-3.6,0.94c0.77,1.63,1.37,3.74,1.8,6.33
		C380.47,384.63,380.71,386.6,380.93,388.95z"/>
	<path class="st1" d="M674.57,436.18c-2.12,1.06-4.51,1.99-7.19,2.8c-2.69,0.82-5.51,1.23-8.48,1.23c-3.74,0-7.03-0.7-9.86-2.1
		c-2.83-1.39-5.2-3.38-7.12-5.98c-1.92-2.59-3.38-5.67-4.38-9.23c-1.01-3.56-1.51-7.5-1.51-11.83l0.58-0.28
		c1.44,0.78,3.02,1.46,4.75,2.04c1.44,0.49,3.12,0.96,5.03,1.39c1.92,0.44,3.93,0.66,6.04,0.66c3.16,0,6.4-0.33,9.71-1.01
		c3.31-0.67,6.28-1.8,8.92-3.38c2.63-1.58,4.82-3.6,6.54-6.04c1.72-2.44,2.59-5.49,2.59-9.13c0-2.4-0.48-4.85-1.44-7.33
		c-0.37-0.95-0.85-1.84-1.38-2.71c-5.22,2.44-11.6,4.27-14.84,5.01c0.35,1.56,0.54,3.16,0.54,4.81c0,2.19-0.41,4.08-1.22,5.65
		c-0.82,1.57-1.87,2.86-3.17,3.86c-1.3,1-2.73,1.74-4.31,2.22c-1.58,0.48-3.19,0.72-4.82,0.72c-1.54,0-3.09-0.12-4.67-0.36
		c-1.58-0.24-3.02-0.55-4.31-0.93c-1.3-0.38-2.35-0.76-3.17-1.15c-0.82-0.38-1.22-0.71-1.22-1c0-1.33,0.34-3.26,1.01-5.79
		c0.67-2.53,1.68-5.05,3.02-7.58c1.34-2.53,2.97-4.72,4.89-6.58c1.92-1.85,4.17-2.79,6.76-2.79c2.01,0,3.74,0.41,5.18,1.22
		c0.27,0.15,0.51,0.31,0.76,0.48c1.73-1.42,5.12-4.2,7.88-6.48c-3.33-1.22-7.32-1.83-11.96-1.83c-5.28,0-10.02,1.15-14.24,3.45
		c-4.22,2.31-7.79,5.32-10.71,9.06c-2.93,3.74-5.18,8.01-6.76,12.8c-1.58,4.79-2.38,9.69-2.38,14.67c0,5.28,0.84,10.14,2.52,14.6
		c1.68,4.46,4,8.3,6.97,11.51c2.97,3.21,6.52,5.71,10.64,7.48c4.12,1.77,8.58,2.66,13.38,2.66c6.04,0,10.93-0.93,14.67-2.81
		c3.74-1.87,6.71-3.96,8.92-6.26c2.5-2.69,4.32-5.75,5.47-9.2l-0.72-0.72C679.36,433.64,677.06,435.03,674.57,436.18z"/>
	<path class="st10" d="M677.11,370.47c-2.51,2.09-13.25,10.97-15.07,12.45c0.47,0.45,0.91,0.93,1.29,1.46
		c0.59,0.83,1.05,1.74,1.4,2.73c2.9-0.62,17.26-6.62,21.86-8.71C685.17,375.58,679.51,371.51,677.11,370.47z"/>
	<path class="st0" d="M444.14,276.28"/>
	<path class="st11" d="M240.75,526.01h-19.03v-26.04l6.12-0.47v21.43h13.46L240.75,526.01z"/>
	<path class="st11" d="M261.14,526.27c-3.85,0-7.09-1.36-9.72-4.1c-2.51-2.63-3.77-5.71-3.77-9.21c0-3.58,1.27-6.68,3.81-9.29
		c2.63-2.68,5.9-4.02,9.8-4.02c0.02,0,0.05,0,0.07,0c3.79,0.02,6.96,1.33,9.52,3.91c2.43,2.46,3.72,5.43,3.88,8.88
		c0,0.2,0,0.39,0,0.58c0,3.38-1.21,6.37-3.62,8.96C268.44,524.84,265.12,526.27,261.14,526.27z M261.18,504.69
		c-0.02,0-0.05,0-0.07,0c-2.09,0-3.83,0.81-5.23,2.42c-1.43,1.64-2.15,3.6-2.15,5.88c0,2.19,0.75,4.1,2.26,5.75
		c1.52,1.66,3.26,2.5,5.23,2.5c2.04,0,3.78-0.83,5.23-2.5c1.42-1.65,2.13-3.56,2.13-5.72c0-0.05,0-0.1,0-0.15
		c-0.02-2.26-0.73-4.18-2.13-5.77C265.02,505.52,263.27,504.71,261.18,504.69z"/>
	<path class="st11" d="M319.27,526.47L318,512.28l-4.88,13.77h-5.85l-5.15-13.8l-1.07,14.22l-6.08-0.88l2.53-25.62l5.79-0.4
		l6.85,17.9l6.65-17.9l5.77,0.4l2.84,25.62L319.27,526.47z"/>
	<path class="st11" d="M351.99,526.01h-19.03V499.9h18.28l0.55,5.08h-12.71v5.02h11.22v5.08h-11.22v5.85h13.46L351.99,526.01z"/>
	<path class="st11" d="M378.28,520.64c-1.59,3.46-4.78,5.3-9.56,5.52c-0.15,0-0.29,0-0.44,0c-3.2,0-6.52-1.53-9.96-4.59l3.35-4.03
		c2.91,2.37,5.1,3.55,6.57,3.55c0.07,0,0.15,0,0.22,0c1.26-0.13,2.14-0.35,2.64-0.64c0.42-0.25,0.86-0.76,1.31-1.53
		c0.25-0.45,0.42-1.16,0.49-2.13v-17.3l6.12,0.47v16.75c-0.03,0.5-0.07,0.97-0.13,1.42C378.75,519.21,378.55,520.04,378.28,520.64z"
		/>
	<path class="st11" d="M399.98,526.27c-3.85,0-7.09-1.36-9.72-4.1c-2.51-2.63-3.77-5.71-3.77-9.21c0-3.58,1.27-6.68,3.81-9.29
		c2.63-2.68,5.9-4.02,9.8-4.02c0.02,0,0.05,0,0.07,0c3.79,0.02,6.96,1.33,9.52,3.91c2.43,2.46,3.72,5.43,3.88,8.88
		c0,0.2,0,0.39,0,0.58c0,3.38-1.21,6.37-3.62,8.96C407.28,524.84,403.96,526.27,399.98,526.27z M400.02,504.69
		c-0.03,0-0.05,0-0.07,0c-2.09,0-3.83,0.81-5.23,2.42c-1.43,1.64-2.15,3.6-2.15,5.88c0,2.19,0.75,4.1,2.26,5.75
		c1.52,1.66,3.26,2.5,5.23,2.5c2.04,0,3.78-0.83,5.23-2.5c1.42-1.65,2.13-3.56,2.13-5.72c0-0.05,0-0.1,0-0.15
		c-0.03-2.26-0.73-4.18-2.13-5.77C403.86,505.52,402.1,504.71,400.02,504.69z"/>
	<path class="st11" d="M437.05,526.43l-6.34-10.6c-0.5,0-1.69,0.04-3.59,0.11v10.07h-6.12v-26.04c3.03-0.27,5.64-0.4,7.83-0.4
		c0.8,0,1.5,0.02,2.09,0.07c7.09,0.47,10.63,3.11,10.63,7.9c0,0.07,0,0.15,0,0.24c-0.08,3.13-1.64,5.4-4.66,6.81l6.77,10.89
		L437.05,526.43z M431.71,504.87c-0.97-0.16-2.04-0.24-3.21-0.24c-0.45,0-0.91,0.02-1.38,0.06v6.13c1.39,0.09,2.26,0.13,2.6,0.13
		c3.58,0,5.5-1.11,5.75-3.33c0-0.07,0-0.15,0-0.22C435.48,506.09,434.23,505.25,431.71,504.87z"/>
	<path class="st11" d="M473.97,526.27c-2.25,0-5.26-0.11-9.03-0.33v-25.87c2.78-0.35,5.36-0.53,7.76-0.53
		c4.1,0,7.67,0.98,10.71,2.95c3.53,2.26,5.3,5.34,5.3,9.25c0,4.44-1.34,7.97-4.03,10.58C481.98,524.95,478.41,526.27,473.97,526.27z
		 M471.05,504.53v16.64c0.67,0.07,1.33,0.11,1.98,0.11c6.34,0,9.5-2.96,9.5-8.88c0-5.29-3.26-7.94-9.78-7.94
		C472.2,504.45,471.62,504.48,471.05,504.53z"/>
	<path class="st11" d="M515.17,526.01h-19.03V499.9h18.28l0.55,5.08h-12.71v5.02h11.22v5.08h-11.22v5.85h13.45L515.17,526.01z"/>
	<path class="st11" d="M550.21,504.98v21.03h-6.12v-21.03h-8.23l0.55-5.08h21.49l0.56,5.08H550.21z"/>
	<path class="st11" d="M565.9,526.01v-26.04l6.12-0.47v26.51H565.9z"/>
	<path class="st12" d="M506.58,187.92c-6.32-1.65-17.3-3.87-31.38-4.14c-0.21-0.01-0.43-0.01-0.64-0.01
		c-20.95-0.31-48.61,3.72-77.94,20.21c0,0-0.06,0.03-0.15,0.09c-0.96,0.54-1.93,1.1-2.89,1.67c-1.24,0.81-2.47,1.65-3.69,2.52
		c-0.75,0.52-1.52,1.08-2.28,1.66c-23.7,17.7-43.38,46.15-58.43,96.85c0.04,0.03,0.08,0.06,0.13,0.08
		c0.47,0.24,20.38-13.16,25.38-16.42c7.8-5.1,16.11-10.94,25.84-10.8c12.32,0.18,22.44,10.03,31.88,16.81
		c7.25,5.22,14.41,10.57,21.56,15.92c5.59,4.19,11.15,8.42,16.71,12.65c1.18,0.89,2.45,1.48,3.94,1.59c1.47,0.1,2.54-0.63,2.98-2.02
		c0.48-1.51,0.35-3.03-0.1-4.5c-2.07-6.66-4.09-13.34-6.3-19.95c-3.57-10.69-7.14-21.35-10.97-31.96
		c-1.77-4.89-3.55-10.02-3.2-15.29c0.2-2.95,1.03-5.8,2.27-8.48c0.04-0.07,0.07-0.14,0.1-0.21c1.51-3.21,3.61-6.19,5.9-8.81
		c0.75-0.87,1.56-1.68,2.37-2.49c1.92-1.89,3.69-3.92,5.65-5.78c2.46-2.34,5.05-4.54,7.69-6.68c3.12-2.52,6.32-4.93,9.62-7.22
		c3.99-2.78,8.13-5.35,12.32-7.82c4.51-2.64,9.09-5.17,13.67-7.68c0.63-0.35,1.53-0.46,1.74-1.28c0.17-0.65-0.24-1.29-0.82-1.56
		c-0.15-0.07-0.31-0.11-0.47-0.12c-13.18-3.32-44.62-6.51-91.96,16.1c0,0-2.51,0.09-1.64-1.53c0,0,35.65-34.26,102.96-20.94
		c0.32,0.06,1.07,0.36,1.07-0.09C507.49,188.11,506.89,188,506.58,187.92z"/>
	<g>
		<path class="st13" d="M439.58,152.54c-1.59,0.13-5.37,0.49-10.63,1.39c1.88-0.32,5.97-0.96,10.26-1.35
			c0.05-0.01,0.1-0.01,0.14-0.02C439.44,152.56,439.5,152.55,439.58,152.54z"/>
		<path class="st13" d="M439.67,152.53c-0.08,0.01-0.17,0.02-0.27,0.03c0.15-0.01,0.3-0.03,0.45-0.04c0.02,0,0.05-0.01,0.07-0.01
			C439.86,152.52,439.77,152.53,439.67,152.53z"/>
		<path class="st0" d="M428.95,153.93c5.26-0.9,9.04-1.27,10.63-1.39c-0.07,0.01-0.14,0.01-0.22,0.02c-0.05,0.01-0.1,0.01-0.14,0.02
			c0.06-0.01,0.13-0.01,0.2-0.02c0.1-0.01,0.19-0.02,0.27-0.03c0.09-0.01,0.18-0.01,0.26-0.02c-0.02,0-0.05,0.01-0.07,0.01
			c0.02,0,0.04,0,0.05,0c0.02,0,0.04-0.01,0.05-0.01c0.1-0.02,0.21-0.02,0.23-0.03c0.02,0,0.04-0.01,0.07-0.02
			c0.24-0.06,0.41-0.28,0.38-0.53c-0.01-0.07-0.03-0.13-0.06-0.19c-0.09-0.17-0.29-0.28-0.5-0.26c-0.02,0-0.16,0-0.21,0
			c-1.79,0.04-11.01,1.02-12.79,1.25c-3.78,0.49-7.53,1.24-11.3,1.85c-3,0.48-6,0.98-8.99,1.51c-3.02,0.53-4.84,1.7-5.19-2.41
			c-0.35-4.2,0.23-8.63,0.35-12.85c0.26-8.44,1.45-16.85,2.57-25.21c0.22-1.63,0.59-4.17-1.54-4.32c-1.49-0.11-3.46,1.76-4.45,2.7
			c-2.91,2.77-5.37,6.04-8.02,9.05c-6.06,6.88-12.05,13.86-17.9,20.92c-3.44,4.15-6.84,8.32-10.17,12.55
			c-3.07,3.89-5.87,8-9.32,11.59c-2.41,2.52-5.51,4.57-8.75,5.82c-5.93,2.29-12.5,2.53-18.78,2.43c-7.23-0.12-36.67-2.48-35.58,3.91
			c0.79,4.67,11.93,16,14,18.56c4.54,5.62,9.45,11.04,13.44,17.08c2.48,3.76,4.5,7.77,6.27,11.9c1.03,2.41,1.85,4.91,2.54,7.44
			c0.7,2.54,0.84,5.18,1.09,7.79c0.15,1.6,0.14,3.21,0.02,4.81c-0.16,2.02-0.32,4.04-0.46,6.06c-0.17,2.52-0.32,5.06-0.45,7.58
			c-0.1,1.9-0.16,3.79-0.22,5.69c-0.07,2.24-0.05,4.48-0.2,6.71c-0.07,1.11-0.1,2.23-0.11,3.35c-0.34,7.79-0.16,13.48,0.23,17.64
			c0.01,0.06,0.01,0.12,0.02,0.18c0.04,0.06,0.11,0.1,0.18,0.09c0.07-0.01,0.12-0.05,0.15-0.1c0.01-0.05,0.01-0.1,0.02-0.15
			c0.04-0.43,0.09-0.87,0.14-1.33l0,0c2.56-53.45,24.63-87.13,48.64-108.12c0.01,0,0.01,0,0.02-0.01c0.17-0.14,0.52-0.45,0.53-0.47
			c0.23-0.2,0.96-0.77,1.05-0.9c0.07-0.1,0.11-0.2,0.14-0.32c0.02-0.08,0.03-0.15,0.03-0.23c0-0.48-0.35-0.87-0.81-0.94
			c-0.05-0.01-0.1-0.01-0.15-0.01c-0.11,0-0.22,0.02-0.32,0.06c-0.06,0.03-0.13,0.06-0.19,0.09c-31.4,14.99-37.68,36.78-39.72,37.44
			c-2.95,0.95-2.19-1.44-2.19-1.44c22.27-46.45,71.08-60.47,94.16-64.58v0C427.86,154.12,428.26,154.05,428.95,153.93z"/>
		<path class="st0" d="M427.86,154.12L427.86,154.12c0.37-0.07,0.73-0.13,1.09-0.19C428.26,154.05,427.86,154.12,427.86,154.12z"/>
	</g>
	<path class="st0" d="M444.14,276.28"/>
	<g>
		
			<linearGradient id="SVGID_00000174563988458655975870000011223562851431877272_" gradientUnits="userSpaceOnUse" x1="399.4584" y1="222.7675" x2="561.9905" y2="222.7675" gradientTransform="matrix(0.9998 0.0212 -0.0212 0.9998 -62.3521 22.2227)">
			<stop  offset="0.0814" style="stop-color:#F39200;stop-opacity:0.8"/>
			<stop  offset="0.6223" style="stop-color:#F7A41D;stop-opacity:0.3289"/>
			<stop  offset="1" style="stop-color:#F9B233;stop-opacity:0"/>
		</linearGradient>
		<path style="fill:url(#SVGID_00000174563988458655975870000011223562851431877272_);" d="M454.33,325.04
			c-1.07-0.08-2.07-0.48-3.12-1.28l-3.47-2.64c-4.33-3.29-8.82-6.7-13.25-10.02c-6.63-4.96-14.14-10.59-21.58-15.94
			c-1.7-1.23-3.41-2.53-5.21-3.92c-7.91-6.08-16.88-12.96-27.39-13.19l-0.16,0c-9.65-0.14-18,5.33-25.36,10.17l-1.35,0.88
			c-2.52,1.64-5.13,3.25-7.65,4.8c-2.48,1.52-5.03,3.1-7.52,4.71c-1.59,1.03-3.06,2.22-4.49,3.36c-0.86,0.7-1.7,1.37-2.55,2
			c10.92-35.41,26.48-63.4,46.29-83.22c16.38-16.39,35.73-27.29,57.5-32.41c2.69-0.63,5.42-1.18,8.18-1.63
			c-22.19,5.21-34.44,15.4-39.37,19.51c-1.41,1.17-2.95,2.74-2.36,4.42c0.38,1.08,1.47,1.69,3.07,1.72c0.15,0,0.24,0,0.24,0
			l0.32-0.01l0.29-0.13c32.51-15.52,57.7-18.39,73.11-18.06c7.74,0.16,13.64,1.11,17.6,2.02c-26.88,13.59-41.95,26.77-49.93,35.6
			c-0.68,0.67-1.57,1.56-2.42,2.54c-2.61,2.98-4.67,6.06-6.13,9.17l-0.11,0.22c-1.4,3.04-2.21,6.07-2.41,9.03
			c-0.39,5.75,1.65,11.39,3.28,15.92c3.95,10.94,7.68,22.08,10.96,31.92c1.79,5.37,3.49,10.87,5.14,16.2l1.15,3.73
			c0.41,1.32,0.44,2.49,0.11,3.58c-0.21,0.68-0.59,0.96-1.28,0.94C454.44,325.04,454.37,325.04,454.33,325.04z"/>
	</g>
	<g>
		
			<linearGradient id="SVGID_00000179627948966673666910000008877033957426416062_" gradientUnits="userSpaceOnUse" x1="447.775" y1="222.135" x2="493.931" y2="182.8759" gradientTransform="matrix(0.9998 0.0212 -0.0212 0.9998 -62.3521 22.2227)">
			<stop  offset="0" style="stop-color:#F39200;stop-opacity:0.8"/>
			<stop  offset="0.3727" style="stop-color:#F69F15;stop-opacity:0.5019"/>
			<stop  offset="1" style="stop-color:#F9B233;stop-opacity:0"/>
		</linearGradient>
		<path style="fill:url(#SVGID_00000179627948966673666910000008877033957426416062_);" d="M478.49,194.17
			c-15.41-0.33-40.6,2.54-73.11,18.06l-0.29,0.13l-0.32,0.01c0,0-0.09,0-0.24,0c-1.6-0.04-2.69-0.65-3.07-1.72
			c-0.59-1.69,0.95-3.25,2.36-4.42c4.93-4.11,17.18-14.3,39.37-19.51c-2.76,0.45-5.49,1-8.18,1.63
			c-21.77,5.11-41.12,16.02-57.5,32.41c-19.81,19.82-35.37,47.81-46.29,83.22c0,0,42.42-107.04,164.72-107.73
			c0.05-0.02,0.09-0.05,0.14-0.07C492.12,195.28,486.23,194.33,478.49,194.17z"/>
		
			<linearGradient id="SVGID_00000133504078053034977710000002914448986401845433_" gradientUnits="userSpaceOnUse" x1="447.775" y1="222.135" x2="493.931" y2="182.8759" gradientTransform="matrix(0.9998 0.0212 -0.0212 0.9998 -62.3521 22.2227)">
			<stop  offset="0" style="stop-color:#F39200;stop-opacity:0.8"/>
			<stop  offset="0.3727" style="stop-color:#F69F15;stop-opacity:0.5019"/>
			<stop  offset="1" style="stop-color:#F9B233;stop-opacity:0"/>
		</linearGradient>
		<path style="fill:url(#SVGID_00000133504078053034977710000002914448986401845433_);" d="M478.49,194.17
			c-15.41-0.33-40.6,2.54-73.11,18.06l-0.29,0.13l-0.32,0.01c0,0-0.09,0-0.24,0c-1.6-0.04-2.69-0.65-3.07-1.72
			c-0.59-1.69,0.95-3.25,2.36-4.42c4.93-4.11,17.18-14.3,39.37-19.51c-2.76,0.45-5.49,1-8.18,1.63
			c-21.77,5.11-41.12,16.02-57.5,32.41c-19.81,19.82-35.37,47.81-46.29,83.22c0,0,42.42-107.04,164.72-107.73
			c0.05-0.02,0.09-0.05,0.14-0.07C492.12,195.28,486.23,194.33,478.49,194.17z"/>
	</g>
	
		<linearGradient id="SVGID_00000003815728512345416140000016941184193734492818_" gradientUnits="userSpaceOnUse" x1="249.9538" y1="188.3862" x2="402.6844" y2="188.3862">
		<stop  offset="0" style="stop-color:#00494F;stop-opacity:0.6"/>
		<stop  offset="0.1139" style="stop-color:#004E54;stop-opacity:0.5259"/>
		<stop  offset="0.2775" style="stop-color:#005B62;stop-opacity:0.4195"/>
		<stop  offset="0.471" style="stop-color:#006D77;stop-opacity:0.2936"/>
		<stop  offset="0.6875" style="stop-color:#008693;stop-opacity:0.1527"/>
		<stop  offset="0.9204" style="stop-color:#1DA4B6;stop-opacity:1.206219e-03"/>
		<stop  offset="0.9223" style="stop-color:#1DA4B6;stop-opacity:0"/>
	</linearGradient>
	<path style="fill:url(#SVGID_00000003815728512345416140000016941184193734492818_);" d="M339.67,218.13
		c-1.44,2.52-2.03,3.56-3.21,3.94c-0.67,0.22-1.26,0.32-1.8,0.32c-1.44,0-2.2-0.75-2.53-1.2c-0.92-1.25-0.49-2.8-0.4-3.09l0.04-0.13
		l0.06-0.13c16.26-33.92,46.47-50.84,70.85-59.24c-1.02-0.2-1.8-0.79-2.33-1.74c-0.42-0.76-0.69-1.76-0.79-3
		c-0.25-3-0.06-6.06,0.13-9.01c0.09-1.41,0.17-2.74,0.22-4.07c0.24-7.98,1.32-15.99,2.36-23.75l0.23-1.75
		c0.06-0.45,0.19-1.4,0.13-1.92c-0.36,0.12-1.15,0.57-2.75,2.1c-1.9,1.81-3.67,3.92-5.38,5.96c-0.82,0.98-1.66,1.98-2.52,2.96
		c-6.5,7.38-12.34,14.21-17.86,20.88c-3.78,4.56-7.1,8.65-10.14,12.52c-0.88,1.12-1.77,2.29-2.62,3.42
		c-2.12,2.8-4.31,5.69-6.83,8.32c-2.6,2.71-5.96,4.95-9.48,6.3c-5.92,2.29-12.33,2.58-17.25,2.58c-0.77,0-1.53-0.01-2.3-0.02
		c-1.09-0.02-2.67-0.08-4.51-0.17c-3.53-0.15-8.36-0.36-13.06-0.36c-13.5,0-15.67,1.75-15.98,2.13c0.61,3.16,8.01,11.36,11.18,14.87
		c1.07,1.19,1.92,2.13,2.39,2.71c1.21,1.5,2.48,3.02,3.7,4.48c3.38,4.05,6.87,8.24,9.85,12.75c1.15,1.75,2.26,3.62,3.33,5.65
		c1.07,2.02,2.1,4.2,3.12,6.56c0.97,2.26,1.83,4.78,2.63,7.7c0.63,2.29,0.84,4.6,1.03,6.84c0.04,0.43,0.08,0.86,0.12,1.29
		c0.16,1.62,0.16,3.31,0.02,5.15l-0.13,1.69c-0.11,1.45-0.23,2.9-0.32,4.35c-0.18,2.7-0.33,5.17-0.45,7.56
		c-0.03,0.61-0.06,1.21-0.09,1.82c6.25-29.94,19.79-54.99,40.48-74.84C350.29,199.52,342.84,212.58,339.67,218.13z"/>
	<g>
		
			<linearGradient id="SVGID_00000057853340813241715880000000297866110630621116_" gradientUnits="userSpaceOnUse" x1="358.3218" y1="149.0894" x2="384.875" y2="149.0894">
			<stop  offset="0" style="stop-color:#00494F;stop-opacity:0.6"/>
			<stop  offset="1.018338e-03" style="stop-color:#004A50;stop-opacity:0.599"/>
			<stop  offset="0.0316" style="stop-color:#00626A;stop-opacity:0.5676"/>
			<stop  offset="0.0651" style="stop-color:#00757F;stop-opacity:0.5333"/>
			<stop  offset="0.103" style="stop-color:#008491;stop-opacity:0.4944"/>
			<stop  offset="0.1459" style="stop-color:#05909F;stop-opacity:0.4505"/>
			<stop  offset="0.1959" style="stop-color:#129AAA;stop-opacity:0.3993"/>
			<stop  offset="0.2578" style="stop-color:#19A0B1;stop-opacity:0.3359"/>
			<stop  offset="0.3446" style="stop-color:#1CA3B5;stop-opacity:0.2469"/>
			<stop  offset="0.5856" style="stop-color:#1DA4B6;stop-opacity:0"/>
		</linearGradient>
		<path style="fill:url(#SVGID_00000057853340813241715880000000297866110630621116_);" d="M361.57,161.19
			c0.85-1.13,1.74-2.29,2.62-3.42c3.05-3.86,6.36-7.95,10.14-12.52c3.37-4.07,6.86-8.19,10.54-12.47
			c-8.34,9.29-17.6,20.36-26.55,32.61C359.44,164,360.51,162.58,361.57,161.19z"/>
		
			<linearGradient id="SVGID_00000176023661352085975570000008627251594828385205_" gradientUnits="userSpaceOnUse" x1="313.9604" y1="188.6772" x2="488.3395" y2="188.6772">
			<stop  offset="0" style="stop-color:#00494F;stop-opacity:0.6"/>
			<stop  offset="1.018338e-03" style="stop-color:#004A50;stop-opacity:0.599"/>
			<stop  offset="0.0316" style="stop-color:#00626A;stop-opacity:0.5676"/>
			<stop  offset="0.0651" style="stop-color:#00757F;stop-opacity:0.5333"/>
			<stop  offset="0.103" style="stop-color:#008491;stop-opacity:0.4944"/>
			<stop  offset="0.1459" style="stop-color:#05909F;stop-opacity:0.4505"/>
			<stop  offset="0.1959" style="stop-color:#129AAA;stop-opacity:0.3993"/>
			<stop  offset="0.2578" style="stop-color:#19A0B1;stop-opacity:0.3359"/>
			<stop  offset="0.3446" style="stop-color:#1CA3B5;stop-opacity:0.2469"/>
			<stop  offset="0.5856" style="stop-color:#1DA4B6;stop-opacity:0"/>
		</linearGradient>
		<path style="fill:url(#SVGID_00000176023661352085975570000008627251594828385205_);" d="M400.11,140.78
			c0.24-7.98,1.32-15.99,2.36-23.75l0.23-1.75c0.04-0.3,0.11-0.82,0.13-1.29c-0.07,0.02-0.13,0.05-0.2,0.07
			c-4.88,4.87-11.02,11.21-17.77,18.72c-3.68,4.28-7.17,8.4-10.54,12.47c-3.78,4.56-7.1,8.65-10.14,12.52
			c-0.88,1.12-1.77,2.29-2.62,3.42c-1.05,1.39-2.13,2.81-3.25,4.21c-13.12,17.95-25.58,38.44-33.5,59.55
			c0.31,0.67,0.61,1.36,0.92,2.07c0.97,2.26,1.83,4.78,2.63,7.7c0.63,2.29,0.83,4.6,1.03,6.84c0.04,0.43,0.08,0.86,0.12,1.29
			c0.08,0.84,0.12,1.7,0.12,2.59c0.01,0.88-0.03,1.78-0.1,2.73l-0.13,1.69c-0.11,1.45-0.23,2.9-0.32,4.36
			c-0.18,2.7-0.33,5.17-0.45,7.56c-0.03,0.54-0.05,1.07-0.08,1.61c6.21-29.7,19.6-54.59,40.03-74.36
			c-18.21,10.9-25.57,23.79-28.71,29.29c-1.44,2.52-2.03,3.56-3.21,3.94c-0.67,0.22-1.26,0.32-1.8,0.32c-1.44,0-2.21-0.75-2.53-1.2
			c-0.48-0.65-0.59-1.38-0.58-1.97c-0.01-0.62,0.13-1.13,0.18-1.28l0.04-0.13l0.06-0.13c16.25-33.88,46.4-50.8,70.77-59.21
			c0-0.01-0.01-0.03-0.01-0.05c-0.98-0.22-1.73-0.79-2.24-1.72c-0.42-0.76-0.69-1.76-0.79-3c-0.25-3-0.06-6.06,0.13-9.01
			C399.99,143.43,400.07,142.1,400.11,140.78z"/>
		
			<linearGradient id="SVGID_00000141452468119589086850000004103178092051425966_" gradientUnits="userSpaceOnUse" x1="313.9562" y1="123.4255" x2="488.3441" y2="123.4255">
			<stop  offset="0" style="stop-color:#00494F;stop-opacity:0.6"/>
			<stop  offset="1.018338e-03" style="stop-color:#004A50;stop-opacity:0.599"/>
			<stop  offset="0.0316" style="stop-color:#00626A;stop-opacity:0.5676"/>
			<stop  offset="0.0651" style="stop-color:#00757F;stop-opacity:0.5333"/>
			<stop  offset="0.103" style="stop-color:#008491;stop-opacity:0.4944"/>
			<stop  offset="0.1459" style="stop-color:#05909F;stop-opacity:0.4505"/>
			<stop  offset="0.1959" style="stop-color:#129AAA;stop-opacity:0.3993"/>
			<stop  offset="0.2578" style="stop-color:#19A0B1;stop-opacity:0.3359"/>
			<stop  offset="0.3446" style="stop-color:#1CA3B5;stop-opacity:0.2469"/>
			<stop  offset="0.5856" style="stop-color:#1DA4B6;stop-opacity:0"/>
		</linearGradient>
		<path style="fill:url(#SVGID_00000141452468119589086850000004103178092051425966_);" d="M400.09,115.46
			c-1.9,1.81-3.67,3.92-5.38,5.96c-0.82,0.98-1.66,1.98-2.52,2.96c-2.53,2.88-4.96,5.67-7.32,8.4c6.74-7.51,12.88-13.85,17.77-18.72
			c-0.56,0.19-1.13,0.4-1.69,0.61C400.69,114.9,400.41,115.15,400.09,115.46z"/>
		
			<linearGradient id="SVGID_00000113311635363967621930000016841013693799580814_" gradientUnits="userSpaceOnUse" x1="254.4237" y1="123.4255" x2="567.5386" y2="123.4255">
			<stop  offset="0" style="stop-color:#00494F;stop-opacity:0.6"/>
			<stop  offset="1.018338e-03" style="stop-color:#004A50;stop-opacity:0.599"/>
			<stop  offset="0.0316" style="stop-color:#00626A;stop-opacity:0.5676"/>
			<stop  offset="0.0651" style="stop-color:#00757F;stop-opacity:0.5333"/>
			<stop  offset="0.103" style="stop-color:#008491;stop-opacity:0.4944"/>
			<stop  offset="0.1459" style="stop-color:#05909F;stop-opacity:0.4505"/>
			<stop  offset="0.1959" style="stop-color:#129AAA;stop-opacity:0.3993"/>
			<stop  offset="0.2578" style="stop-color:#19A0B1;stop-opacity:0.3359"/>
			<stop  offset="0.3446" style="stop-color:#1CA3B5;stop-opacity:0.2469"/>
			<stop  offset="0.5856" style="stop-color:#1DA4B6;stop-opacity:0"/>
		</linearGradient>
		<path style="fill:url(#SVGID_00000113311635363967621930000016841013693799580814_);" d="M400.09,115.46
			c-1.9,1.81-3.67,3.92-5.38,5.96c-0.82,0.98-1.66,1.98-2.52,2.96c-2.53,2.88-4.96,5.67-7.32,8.4c6.74-7.51,12.88-13.85,17.77-18.72
			c-0.56,0.19-1.13,0.4-1.69,0.61C400.69,114.9,400.41,115.15,400.09,115.46z"/>
	</g>
</g>
</svg>
