<?xml version="1.0" encoding="utf-8"?>
<!-- Generator: Adobe Illustrator 26.5.0, SVG Export Plug-In . SVG Version: 6.00 Build 0)  -->
<svg version="1.1" id="Capa_1" xmlns="http://www.w3.org/2000/svg" xmlns:xlink="http://www.w3.org/1999/xlink" x="0px" y="0px"
	 viewBox="0 0 566.93 566.93" style="enable-background:new 0 0 566.93 566.93;" xml:space="preserve">
<style type="text/css">
	.st0{fill:#E45A62;}
</style>
<g>
	<g>
		<path class="st0" d="M246.88,195.25c0.66,4.36,1.45,8.71,1.85,13.12c0.3,3.29,0.71,7.23,1.86,10.09c1.63,4.06,3.45,10.9,6.67,8.73
			c9.22-6.22,28.9,6.4,28.9,6.4s19.68-12.63,28.9-6.4c3.22,2.18,5.04-4.66,6.67-8.73c1.15-2.86,1.56-6.79,1.86-10.09
			c0.39-4.4,1.19-8.75,1.85-13.12c0.06-0.39,0.16-0.85,0.41-1.12c0.62-0.69,1.35-1.29,2.03-1.94c0.82-0.78,1.64-1.57,2.44-2.36
			c0.09-0.08,0.15-0.23,0.15-0.34c0.01-0.96,0.04-1.93,0-2.89c-0.06-1.36-0.17-2.72-0.25-4.09c-0.05-1-0.09-1.98-0.09-2.98
			c0.01-1.84,0.06-3.68,0.09-5.52c0.02-1.53,0.08-3.07,0.08-4.6c0-0.78-0.12-1.56-0.16-2.35c-0.01-0.26,0.05-0.51,0.08-0.78
			c-0.04-0.02-0.09-0.03-0.13-0.05c-0.07,0.12-0.15,0.23-0.21,0.35c-1.26,2.4-2.46,4.83-3.49,7.35c-1.16,2.84-2.37,5.68-3.62,8.49
			c-1,2.25-2.1,4.45-3.15,6.68c-0.33,0.71-0.66,1.43-0.94,2.17c-0.07,0.19,0,0.51,0.12,0.69c0.34,0.5,0.72,0.97,1.1,1.45
			c0.56,0.7,1,1.47,1.22,2.34c0.16,0.65-0.13,1.19-0.55,1.65c-0.24,0.26-0.52,0.49-0.8,0.71c-0.32,0.25-0.39,0.6-0.32,0.95
			c0.34,1.47,0.29,2.93-0.09,4.39c-0.83,3.17-1,6.58-2.48,9.51c-2.89,5.73-12.48,6.34-13.52,5.95c-1.4-0.52-2.74-1.19-3.79-2.26
			c-6.03-4.9-8.8-36.5-8.95-37.89c-0.11-0.91-0.11-1.8,0.21-2.67c0.23-0.66,0.59-1.24,1.22-1.68c-0.35-0.44-0.64-0.89-1-1.28
			c-0.49-0.52-1.1-6.38-1.17-7.95c-0.05-1.34,0.09-4.94,0.06-5.39c-0.06-1.01,0.39-1.72,1.13-2.33c0.76-0.62,2.74-2.45,3.03-2.68
			c0.46-0.35,0.46-0.76,0.3-1.27c-0.83-2.56-4.36-9.84-8.21-28.35h-0.06c-3.85,18.51-7.38,25.79-8.21,28.35
			c-0.17,0.51-0.16,0.92,0.3,1.27c0.29,0.22,2.27,2.06,3.03,2.68c0.74,0.61,1.2,1.33,1.13,2.33c-0.03,0.45,0.11,4.05,0.06,5.39
			c-0.07,1.57-0.68,7.43-1.17,7.95c-0.37,0.39-0.66,0.83-1,1.28c0.63,0.44,0.99,1.02,1.22,1.68c0.32,0.86,0.31,1.76,0.21,2.67
			c-0.16,1.39-2.92,32.99-8.95,37.89c-1.05,1.07-2.38,1.74-3.79,2.26c-1.04,0.38-10.63-0.23-13.52-5.95
			c-1.48-2.92-1.66-6.34-2.48-9.51c-0.38-1.46-0.44-2.92-0.09-4.39c0.08-0.36,0-0.7-0.32-0.95c-0.27-0.22-0.55-0.45-0.79-0.71
			c-0.42-0.46-0.72-1-0.56-1.65c0.23-0.87,0.66-1.64,1.22-2.34c0.38-0.48,0.77-0.95,1.1-1.45c0.12-0.18,0.19-0.5,0.12-0.69
			c-0.28-0.74-0.61-1.46-0.95-2.17c-1.04-2.23-2.15-4.43-3.14-6.68c-1.26-2.81-2.46-5.64-3.62-8.49c-1.03-2.52-2.22-4.95-3.48-7.35
			c-0.06-0.12-0.14-0.23-0.21-0.35c-0.04,0.02-0.09,0.03-0.13,0.05c0.03,0.26,0.09,0.52,0.08,0.78c-0.04,0.79-0.15,1.57-0.16,2.35
			c0,1.53,0.05,3.07,0.07,4.6c0.04,1.84,0.08,3.68,0.09,5.52c0.01,0.99-0.04,1.98-0.09,2.98c-0.07,1.37-0.19,2.73-0.25,4.09
			c-0.03,0.96-0.01,1.93,0,2.89c0,0.11,0.07,0.26,0.15,0.34c0.81,0.79,1.63,1.58,2.44,2.36c0.68,0.65,1.4,1.25,2.03,1.94
			C246.72,194.4,246.82,194.86,246.88,195.25"/>
	</g>
	<g>
		<path class="st0" d="M286.17,241.92c1.63,0,2.96,1.33,2.96,2.96c0,1.63-1.33,2.97-2.96,2.97c-1.64,0-2.97-1.33-2.97-2.97
			C283.2,243.25,284.53,241.92,286.17,241.92 M257.1,303.33c12.14,17.4,22.22,13.52,28.21,22.19l0.85,1.37l0.84-1.37
			c6-8.67,16.07-4.79,28.22-22.19c1.02-1.45,4.03-3.39,6.45-3.43c0.16-0.05,4.78-26.89,4.72-26.93c-0.05,0.12-7.55,2.4-7.71,10.44
			c-0.14,7.78-8.2,16.95-14.33,17.1c-7.52,0.21-8.47-3.05-10.07-6.04c-2.38-4.25-3.32-22.32-3.72-33.32l23.39-2.6
			c1.27-0.14,2.21-1.1,2.08-2.15l-0.21-1.91c-0.12-1.05-1.24-1.78-2.52-1.64l-22.94,2.56c-0.05-1.68-0.09-2.74-0.11-2.9
			c-0.01-0.04-0.02-0.07-0.03-0.1c2.68-1.46,4.52-4.26,4.52-7.52c0-4.73-3.85-8.59-8.58-8.59c-4.74,0-8.59,3.85-8.59,8.59
			c0,3.26,1.84,6.06,4.53,7.52c-0.01,0.04-0.02,0.06-0.03,0.1c-0.03,0.16-0.06,1.22-0.12,2.9l-23.02-2.56
			c-1.27-0.14-2.4,0.59-2.51,1.64l-0.21,1.91c-0.12,1.05,0.82,2.01,2.09,2.15l23.46,2.61c-0.41,11.01-1.34,29.07-3.72,33.31
			c-1.59,2.99-2.55,6.25-10.07,6.04c-6.12-0.15-14.18-9.33-14.33-17.1c-0.16-8.04-7.66-10.32-7.7-10.44
			c-0.07,0.04,4.55,26.87,4.72,26.93C253.07,299.95,256.09,301.88,257.1,303.33"/>
	</g>
	<g>
		<path class="st0" d="M266.51,275.38c6.78,0,10.3-7.08,10.3-7.08l-20.6-2.66C256.21,265.63,263.24,275.38,266.51,275.38"/>
	</g>
	<g>
		<path class="st0" d="M305.75,275.38c3.27,0,10.3-9.75,10.3-9.75l-20.61,2.66C295.44,268.29,298.96,275.38,305.75,275.38"/>
	</g>
	<g>
		<path class="st0" d="M316.64,369.02c0.12-0.02,0.24-0.03,0.36-0.04c0.24-0.04,0.46-0.06,0.68-0.1c0.43-0.09,0.82-0.15,1.16-0.24
			c0.35-0.09,0.64-0.17,0.92-0.25c0.26-0.08,0.48-0.16,0.66-0.22c0.36-0.12,0.55-0.18,0.55-0.18s-0.2,0.02-0.57,0.06
			c-0.19,0.02-0.42,0.04-0.69,0.06c-0.27,0.01-0.58,0.03-0.93,0.04c-0.35,0.01-0.73-0.01-1.14-0.01c-0.21-0.02-0.42-0.04-0.64-0.06
			c-0.11-0.02-0.22-0.02-0.33-0.03c-0.11-0.01-0.22-0.04-0.34-0.06c-0.63-0.1-1.3-0.27-1.95-0.56c0.07-0.08,0.12-0.16,0.18-0.26
			c0.35-0.7,0.08-1.55-0.63-1.91l-0.59-0.3c-0.52-0.27-1.12-0.18-1.55,0.17c-0.09-0.19-0.19-0.39-0.27-0.59
			c-0.21-0.52-0.33-1.1-0.42-1.7c0.09-0.02,0.17-0.04,0.25-0.07c0.73-0.29,1.08-1.12,0.8-1.84l-0.24-0.63
			c-0.15-0.36-0.43-0.63-0.76-0.78c0.11-0.92,0.31-1.85,0.55-2.79c0.08-0.31,0.17-0.62,0.25-0.92c0.76,0.09,1.46-0.42,1.57-1.18
			l0.11-0.66c0.09-0.54-0.14-1.07-0.56-1.37l0.04-0.09l0.05-0.14l0.01-0.04c0.01-0.01-0.01,0.04,0,0.01l0.01-0.02l0.03-0.08
			l0.13-0.36c0.07-0.24,0.16-0.48,0.22-0.72l0.19-0.71c0.07-0.24,0.1-0.48,0.15-0.71c0.02-0.06,0.02-0.12,0.03-0.18
			c0.71,0.03,1.35-0.47,1.47-1.19l0.1-0.66c0.14-0.77-0.39-1.5-1.17-1.64h-0.02c0.05-1.13,0.04-2.23-0.02-3.3
			c0.63-0.15,1.1-0.71,1.1-1.38v-0.67c0-0.78-0.62-1.4-1.39-1.42c-0.15-1.32-0.35-2.58-0.55-3.77c0.72-0.07,1.27-0.67,1.27-1.42
			v-0.67c0-0.78-0.63-1.42-1.42-1.42c-0.19,0-0.37,0.04-0.53,0.11c-0.46-2.07-0.92-3.79-1.27-5.04c-0.2-0.72-0.38-1.29-0.5-1.69
			c-0.04-0.09-0.07-0.19-0.09-0.26c-0.03-0.08-0.05-0.15-0.07-0.2c-0.03-0.1-0.05-5.99-0.06-7.75c0.01-0.07,0.03-0.15,0.04-0.22
			c-10.26,11.33-18.72,9.22-24.01,16.87l-0.85,1.37l-0.85-1.37c-5.25-7.59-13.62-5.57-23.77-16.61c0.12,0.66,0.23,1.3,0.37,1.92
			c-0.06,1.53-0.19,5.7-0.22,5.79l-0.15,0.46c-0.12,0.4-0.3,0.97-0.5,1.69c-0.39,1.36-0.89,3.28-1.39,5.6
			c-0.17-0.07-0.36-0.11-0.56-0.11c-0.79,0-1.42,0.63-1.42,1.42v0.67c0,0.76,0.59,1.37,1.33,1.42c-0.2,1.19-0.38,2.45-0.52,3.77
			c-0.02,0-0.04,0-0.06,0c-0.79,0-1.43,0.64-1.43,1.42v0.67c0,0.72,0.54,1.31,1.22,1.4c-0.03,1.06-0.03,2.15,0.04,3.27
			c-0.06,0-0.13,0.01-0.2,0.02c-0.78,0.13-1.3,0.86-1.17,1.63l0.11,0.66c0.13,0.78,0.86,1.3,1.64,1.17c0.02,0,0.05-0.01,0.07-0.01
			c0.03,0.12,0.05,0.25,0.09,0.38l0.19,0.71c0.05,0.23,0.15,0.48,0.22,0.72l0.12,0.36l0.03,0.08l0.01,0.02c0.01,0.04,0-0.01,0-0.01
			l0.01,0.04l0.06,0.14l0.19,0.47c-0.6,0.25-0.97,0.88-0.85,1.55l0.11,0.66c0.13,0.77,0.86,1.3,1.64,1.17
			c0.08-0.01,0.15-0.04,0.22-0.06c0.04,0.15,0.08,0.3,0.12,0.45c0.28,1.1,0.49,2.2,0.6,3.26c-0.42,0.11-0.78,0.41-0.96,0.85
			l-0.25,0.62c-0.28,0.73,0.07,1.56,0.8,1.85c0.1,0.03,0.2,0.07,0.3,0.08c-0.08,0.4-0.18,0.79-0.32,1.15
			c-0.15,0.38-0.33,0.73-0.54,1.04c-0.42-0.26-0.96-0.31-1.43-0.07l-0.59,0.3c-0.66,0.34-0.94,1.12-0.68,1.78
			c-0.53,0.19-1.06,0.32-1.57,0.41c-0.11,0.02-0.23,0.04-0.34,0.06c-0.11,0.01-0.23,0.02-0.33,0.03c-0.22,0.02-0.44,0.04-0.64,0.06
			c-0.41,0-0.79,0.02-1.14,0.01c-0.35-0.01-0.66-0.03-0.93-0.04c-0.27-0.02-0.5-0.05-0.68-0.06c-0.38-0.04-0.58-0.06-0.58-0.06
			s0.19,0.06,0.55,0.18c0.18,0.06,0.4,0.14,0.66,0.22c0.27,0.07,0.57,0.15,0.92,0.25c0.34,0.09,0.73,0.15,1.16,0.24
			c0.22,0.04,0.45,0.06,0.68,0.1c0.11,0.01,0.23,0.02,0.36,0.04c0.12,0.01,0.25,0.01,0.38,0.02c1.02,0.06,2.22,0.01,3.52-0.46
			c0.08-0.03,0.16-0.06,0.24-0.09l0.12-0.04l0.12-0.06c0.16-0.08,0.32-0.16,0.48-0.24c0.08-0.04,0.16-0.08,0.24-0.14
			c0.08-0.05,0.16-0.1,0.24-0.15c0.16-0.1,0.32-0.2,0.46-0.32c0.14-0.12,0.3-0.24,0.45-0.38c0.14-0.14,0.28-0.28,0.42-0.42
			c0.14-0.14,0.25-0.3,0.39-0.46l0.19-0.24c0.06-0.08,0.11-0.16,0.17-0.25c0.47-0.66,0.83-1.42,1.11-2.2
			c0.29-0.78,0.49-1.59,0.65-2.42c0.31-1.65,0.37-3.35,0.32-5.06c-0.03-0.85-0.09-1.7-0.18-2.56c-0.05-0.43-0.09-0.85-0.16-1.29
			l-0.1-0.66l-0.09-0.59l-0.03-0.15l0-0.04c0,0-0.02-0.06,0-0.04l-0.01-0.02v-0.06l-0.02-0.23c-0.01-0.15-0.04-0.29-0.04-0.45
			l-0.01-0.47c-0.01-0.15,0.01-0.32,0.01-0.48c0-0.32,0.04-0.65,0.07-0.98c0.01-0.16,0.04-0.34,0.06-0.5
			c0.03-0.16,0.04-0.33,0.07-0.5c0.21-1.35,0.54-2.71,0.93-4.02c0.78-2.64,1.79-5.08,2.73-7.15c0.47-1.03,0.92-1.96,1.33-2.78
			c0.24,0.17,0.49,0.32,0.74,0.47c0,0.07,0,0.14,0.01,0.23c0.01,0.35,0.03,0.87,0.04,1.53c-0.01,0.34-0.01,0.72-0.02,1.12
			c-0.02,0.42-0.03,0.87-0.08,1.36c-0.06,0.98-0.18,2.11-0.35,3.37c-0.16,1.26-0.37,2.66-0.61,4.18c-0.24,1.52-0.49,3.15-0.72,4.88
			c-0.22,1.74-0.41,3.57-0.46,5.49c-0.06,1.91,0.02,3.9,0.34,5.87c0.03,0.25,0.08,0.49,0.13,0.74l0.14,0.74
			c0.09,0.39,0.19,0.78,0.3,1.17c-0.29,0.32-0.43,0.78-0.34,1.23l0.14,0.66c0.13,0.63,0.66,1.07,1.26,1.13
			c0.01,0.01,0.01,0.02,0.02,0.03c0.39,0.9,0.83,1.75,1.32,2.55c0.09,0.15,0.18,0.29,0.27,0.44c-0.46,0.48-0.52,1.24-0.11,1.8
			l0.39,0.54c0.4,0.56,1.13,0.74,1.73,0.47c0.61,0.79,1.18,1.56,1.7,2.31c-0.48,0.49-0.55,1.26-0.14,1.83l0.39,0.54
			c0.35,0.48,0.93,0.68,1.48,0.56c0.19,0.39,0.35,0.77,0.48,1.16c0.05,0.14,0.11,0.29,0.15,0.43c0.04,0.14,0.08,0.28,0.12,0.42
			l0.01,0.06l0.01,0.03c-0.01-0.04,0,0,0-0.01v0.02l0.02,0.12c0.02,0.08,0.04,0.15,0.05,0.23c0.04,0.16,0.06,0.29,0.08,0.42
			c0.09,0.54,0.11,1.09,0.08,1.58c-0.07,1.01-0.39,1.85-0.76,2.51c-0.37,0.65-0.76,1.12-1.03,1.44c-0.13,0.16-0.25,0.27-0.32,0.35
			c-0.08,0.08-0.11,0.12-0.11,0.12s0.05-0.03,0.14-0.1c0.09-0.06,0.22-0.15,0.39-0.28c0.33-0.26,0.82-0.65,1.34-1.25
			c0.52-0.6,1.08-1.47,1.39-2.6c0.15-0.57,0.25-1.18,0.28-1.84c0.01-0.17,0.02-0.35,0.01-0.5v-0.23v-0.12l-0.01-0.14
			c-0.01-0.18-0.02-0.35-0.04-0.53c-0.02-0.18-0.05-0.35-0.06-0.52c-0.1-0.72-0.26-1.45-0.48-2.18c-0.22-0.73-0.48-1.47-0.78-2.21
			c-0.6-1.48-1.35-2.97-2.07-4.46l-0.14-0.28l-0.12-0.26c-0.08-0.18-0.16-0.36-0.23-0.54c-0.17-0.35-0.28-0.72-0.42-1.08
			c-0.26-0.73-0.47-1.48-0.64-2.24c-0.05-0.19-0.08-0.38-0.11-0.58c-0.03-0.18-0.07-0.38-0.09-0.57c-0.06-0.39-0.09-0.77-0.14-1.16
			c-0.02-0.39-0.04-0.78-0.06-1.17v-0.6c0-0.19,0-0.39,0.02-0.58c0.07-1.57,0.32-3.14,0.67-4.68c0.36-1.56,0.83-3.09,1.35-4.6
			c0.5-1.5,1.05-2.98,1.57-4.42c0.53-1.43,1.04-2.82,1.48-4.15c0.45-1.33,0.85-2.58,1.16-3.73c0.17-0.57,0.29-1.12,0.42-1.63
			c0.01-0.06,0.03-0.12,0.04-0.18c0.03,0.19,0.06,0.39,0.09,0.6c0.04,0.29,0.09,0.59,0.13,0.89c0.05,0.31,0.1,0.64,0.13,0.95
			c0.15,1.27,0.31,2.7,0.49,4.26c0.05,0.39,0.09,0.79,0.15,1.2c0.04,0.43,0.07,0.85,0.11,1.29c0.02,0.22,0.04,0.45,0.06,0.67
			c0.02,0.21,0.04,0.43,0.05,0.64c0.04,0.42,0.07,0.86,0.11,1.3c0.02,0.43,0.04,0.86,0.05,1.3c0.01,0.22,0.02,0.44,0.03,0.66
			c0,0.21-0.01,0.43-0.01,0.64c0,0.21,0,0.43-0.01,0.65v0.32v0.08v0.02c0.02-0.14,0.01-0.02,0.01-0.05v0.05l-0.02,0.19
			c-0.02,0.25-0.04,0.49-0.06,0.73c-0.02,0.2-0.04,0.41-0.06,0.61c-0.21,1.84-0.65,3.96-0.91,6.37c-0.12,1.2-0.18,2.49-0.08,3.82
			c0.01,0.33,0.06,0.67,0.1,1c0.02,0.16,0.04,0.33,0.07,0.5l0.1,0.51l0.11,0.5l0.14,0.5l0.14,0.5l0.05,0.19l0.04,0.1l0.07,0.19
			l0.15,0.4c-0.02,0.01-0.05,0.02-0.07,0.04c-0.63,0.46-0.78,1.35-0.32,1.99l0.39,0.54c0.32,0.45,0.86,0.65,1.36,0.57
			c0.08,0.17,0.17,0.33,0.25,0.49c0.13,0.26,0.26,0.51,0.4,0.76c0.27,0.49,0.54,0.99,0.81,1.47c0.06,0.12,0.13,0.23,0.2,0.35
			c-0.07,0.04-0.14,0.08-0.2,0.13c-0.62,0.48-0.74,1.37-0.25,2l0.41,0.52c0.42,0.55,1.18,0.7,1.77,0.41
			c0.37,0.68,0.73,1.36,1.04,2.03c0.15,0.31,0.29,0.6,0.41,0.91c-0.64,0.33-0.95,1.08-0.68,1.77l0.23,0.63
			c0.25,0.65,0.93,1.02,1.59,0.89c0.09,0.34,0.16,0.67,0.22,1.02c0.07,0.43,0.14,0.86,0.19,1.28c0.02,0.22,0.04,0.44,0.06,0.66
			c0,0,0.01,0,0.01,0.01c-0.56,0.21-0.94,0.75-0.93,1.37l0.02,0.67c0.02,0.6,0.41,1.11,0.96,1.3c-0.1,1.46-0.4,2.77-0.92,3.81
			c-0.28,0.56-0.62,1.03-1,1.41c-0.37,0.38-0.79,0.66-1.2,0.88c-0.82,0.41-1.57,0.54-2.08,0.58c-0.25,0.04-0.44,0.03-0.58,0.04
			c-0.13,0-0.2,0.01-0.2,0.01s0.06,0.01,0.2,0.02c0.13,0.01,0.33,0.05,0.59,0.06c0.52,0.03,1.29,0.04,2.26-0.27
			c0.47-0.15,0.99-0.39,1.49-0.76c0.5-0.36,0.99-0.84,1.4-1.43c0.84-1.16,1.43-2.7,1.79-4.38c0.19-0.85,0.31-1.73,0.41-2.64
			c0.02-0.22,0.04-0.46,0.06-0.69c0.01-0.23,0.03-0.46,0.04-0.7c0.02-0.49,0.02-0.98,0.03-1.49c-0.03-2.02-0.43-4.15-1.04-6.22
			c-0.6-2.08-1.42-4.12-2.15-6.1c-0.18-0.5-0.35-0.99-0.53-1.48c-0.08-0.25-0.16-0.49-0.24-0.74c-0.08-0.25-0.16-0.49-0.23-0.74
			l-0.21-0.72c-0.04-0.12-0.06-0.25-0.09-0.36l-0.08-0.34l-0.08-0.34l-0.04-0.17c-0.01-0.05-0.02-0.13-0.04-0.19l-0.16-0.8
			c-0.13-0.84-0.16-1.64-0.08-2.49c0.08-0.85,0.26-1.72,0.51-2.64c0.49-1.83,1.24-3.78,1.86-5.96c0.08-0.3,0.16-0.59,0.24-0.89
			c0.07-0.26,0.13-0.51,0.19-0.76l0.04-0.18l0.01-0.05c0.01-0.04-0.01,0.05,0.01-0.09v-0.03l0.02-0.1c0.02-0.14,0.05-0.28,0.07-0.42
			c0.05-0.28,0.1-0.56,0.15-0.83c0.05-0.28,0.1-0.56,0.14-0.83c0.04-0.27,0.07-0.53,0.1-0.79c0.07-0.52,0.12-1.04,0.18-1.56
			c0.04-0.5,0.08-0.99,0.13-1.48c0.02-0.24,0.03-0.49,0.06-0.72c0.02-0.23,0.03-0.44,0.04-0.67c0.03-0.45,0.07-0.89,0.1-1.32
			c0.02-0.44,0.04-0.88,0.06-1.3c0.07-1.71,0.15-3.28,0.21-4.67c0.02-0.35,0.02-0.68,0.02-0.99c0-0.09,0.01-0.18,0.01-0.27
			c0.23,1.03,0.51,2.2,0.87,3.45c0.32,1.16,0.7,2.39,1.1,3.66c0.4,1.24,0.83,2.54,1.26,3.88c0.42,1.31,0.83,2.63,1.15,3.91
			c0.32,1.29,0.55,2.55,0.59,3.74c0.05,1.19-0.09,2.3-0.46,3.38c-0.09,0.26-0.19,0.53-0.32,0.79l-0.03,0.05
			c-0.01,0.01,0,0.01-0.01,0.04l-0.01,0.03l-0.06,0.12l-0.11,0.26c-0.07,0.18-0.15,0.35-0.22,0.52c-0.29,0.71-0.58,1.41-0.84,2.11
			c-0.53,1.41-0.98,2.81-1.28,4.17c-0.15,0.69-0.27,1.36-0.33,2.02c-0.03,0.17-0.03,0.33-0.05,0.49c-0.01,0.16-0.02,0.32-0.02,0.48
			v0.48c0,0.08,0,0.15-0.01,0.24v0.2c-0.02,1.23,0.18,2.36,0.56,3.28c0.38,0.92,0.9,1.59,1.37,2.08c0.47,0.49,0.88,0.81,1.17,1.03
			c0.28,0.21,0.44,0.31,0.44,0.31s-0.14-0.13-0.37-0.39c-0.24-0.26-0.57-0.65-0.92-1.2c-0.35-0.55-0.68-1.25-0.85-2.09
			c-0.08-0.37-0.12-0.77-0.11-1.17c0.42-0.08,0.76-0.48,0.81-0.98l0.06-0.51c0.05-0.42-0.12-0.81-0.41-1.03
			c0.04-0.1,0.09-0.21,0.14-0.31c0.05-0.13,0.11-0.26,0.17-0.38c0.15-0.33,0.33-0.66,0.52-0.99c0.5,0.09,1.03-0.09,1.37-0.51
			l0.42-0.52c0.4-0.5,0.41-1.19,0.07-1.69c0.25-0.33,0.52-0.65,0.79-0.98c0.35-0.41,0.72-0.83,1.08-1.25
			c0.58,0.25,1.27,0.09,1.68-0.42l0.42-0.52c0.43-0.53,0.41-1.3-0.02-1.81c0.37-0.66,0.69-1.35,0.95-2.07
			c0.08-0.19,0.14-0.39,0.2-0.59c0.55-0.01,1.08-0.35,1.29-0.91l0.24-0.63c0.28-0.73-0.09-1.55-0.83-1.84c0,0,0,0-0.01,0
			c0.15-1.38,0.16-2.71,0.11-3.98c-0.06-1.65-0.21-3.2-0.37-4.65c-0.15-1.42-0.31-2.79-0.45-4.08c-0.14-1.27-0.24-2.44-0.32-3.5
			c-0.15-2.14-0.16-3.85-0.13-5.04c0-0.3,0.02-0.56,0.02-0.79c0.01-0.22,0.02-0.41,0.03-0.55c0.01-0.12,0.01-0.22,0.01-0.29
			c0.24-0.15,0.46-0.3,0.69-0.46c0.42,0.84,0.89,1.8,1.37,2.86c0.93,2.07,1.94,4.51,2.73,7.15c0.39,1.31,0.72,2.67,0.93,4.02
			c0.03,0.16,0.05,0.33,0.07,0.5c0.01,0.16,0.05,0.35,0.05,0.5c0.02,0.33,0.06,0.66,0.06,0.98c0,0.16,0.01,0.32,0.01,0.48
			l-0.01,0.47c0.01,0.16-0.02,0.3-0.03,0.45l-0.02,0.23v0.06v0.02c0.01-0.02-0.01,0.04-0.01,0.04l-0.01,0.04l-0.02,0.15l-0.09,0.59
			l-0.1,0.66c-0.07,0.44-0.1,0.86-0.16,1.29c-0.09,0.86-0.15,1.71-0.18,2.56c-0.05,1.7,0.02,3.41,0.32,5.06
			c0.15,0.83,0.35,1.64,0.64,2.42c0.29,0.78,0.65,1.54,1.11,2.2c0.06,0.09,0.11,0.17,0.17,0.25l0.2,0.24
			c0.12,0.15,0.24,0.31,0.38,0.46c0.14,0.14,0.28,0.28,0.42,0.42c0.15,0.13,0.3,0.25,0.45,0.38c0.14,0.13,0.3,0.23,0.46,0.32
			c0.08,0.05,0.15,0.1,0.24,0.15c0.08,0.06,0.15,0.1,0.24,0.14c0.16,0.08,0.32,0.16,0.48,0.24l0.12,0.06l0.13,0.04
			c0.08,0.03,0.16,0.06,0.25,0.09c1.29,0.47,2.5,0.52,3.51,0.46C316.39,369.04,316.52,369.03,316.64,369.02"/>
	</g>
	<g>
		<path class="st0" d="M157.35,273.37c-0.96,0.06-1.94,0.01-2.9,0.01v0.01c-0.97,0-1.94-0.03-2.91,0.01
			c-0.8,0.03-1.1-0.31-1.09-1.09c0.03-1.81,0.03-3.61,0-5.41c-0.01-0.8,0.35-1.12,1.11-1.1c2.02,0.04,4.04-0.01,6.05,0.16
			c2.11,0.18,3.08,1.54,3.01,3.86C160.57,271.87,159.33,273.24,157.35,273.37 M167.26,286.23c-1.48-2.08-2.95-4.17-4.46-6.22
			c-0.49-0.66-0.42-1.07,0.28-1.49c2.74-1.63,4.02-4.17,4.56-7.21c0.87-4.94-1.65-9.81-6.04-11.39c-1.18-0.43-2.45-0.58-3.68-0.86
			h-14.03c-0.25,0.52-0.72,1.04-0.72,1.56c-0.05,8.51-0.02,17.02-0.04,25.52c0,1.04,0.36,1.56,1.47,1.52c1.45-0.05,2.91-0.05,4.36,0
			c1.18,0.05,1.55-0.51,1.52-1.6c-0.05-1.63-0.03-3.26,0.01-4.89c0.01-0.35,0.13-0.84,0.38-1.03c0.77-0.59,3.35-0.05,3.95,0.78
			c1.31,1.83,2.6,3.66,3.88,5.5c0.6,0.86,1.33,1.31,2.44,1.24c1.36-0.08,2.73-0.02,4.1-0.02h2.88
			C167.69,286.95,167.5,286.57,167.26,286.23"/>
	</g>
	<g>
		<path class="st0" d="M509.14,270.48c-0.96,0.06-1.93,0.01-2.9,0.01v0.02c-1.01,0-2.03,0.08-3.03-0.04
			c-0.35-0.05-0.9-0.58-0.91-0.91c-0.09-1.89-0.09-3.78,0-5.67c0.01-0.34,0.59-0.92,0.92-0.93c2.06-0.05,4.13-0.06,6.18,0.11
			c2.11,0.18,3.09,1.54,3.02,3.86C512.36,268.98,511.12,270.35,509.14,270.48 M519.05,283.35c-1.47-2.08-2.95-4.16-4.46-6.22
			c-0.48-0.66-0.42-1.07,0.28-1.48c2.74-1.63,4.03-4.17,4.56-7.21c0.88-4.94-1.65-9.81-6.04-11.39c-1.18-0.42-2.45-0.58-3.68-0.85
			h-14.03c-0.25,0.52-0.72,1.04-0.72,1.56c-0.05,8.51-0.03,17.02-0.04,25.53c0,1.04,0.36,1.56,1.47,1.52c1.45-0.05,2.91-0.06,4.36,0
			c1.18,0.05,1.56-0.5,1.52-1.6c-0.04-1.63-0.03-3.26,0.01-4.89c0.01-0.35,0.13-0.83,0.38-1.03c0.77-0.59,3.35-0.05,3.95,0.78
			c1.31,1.83,2.6,3.66,3.88,5.5c0.6,0.87,1.33,1.32,2.44,1.25c1.36-0.09,2.73-0.02,4.1-0.02h2.88
			C519.47,284.06,519.29,283.69,519.05,283.35"/>
	</g>
	<g>
		<path class="st0" d="M122.49,266.21c3.79,0.06,7.59-0.01,11.38,0.04c1.16,0.02,1.59-0.44,1.54-1.56
			c-0.05-1.32,0.06-2.65-0.05-3.96c-0.05-0.56-0.49-1.1-0.75-1.64h-20.38c-0.25,0.48-0.72,0.95-0.72,1.43
			c-0.05,8.6-0.03,17.2-0.04,25.8c0,0.92,0.36,1.38,1.34,1.37c6.44-0.02,12.88-0.01,19.31,0c0.89,0,1.29-0.42,1.28-1.29
			c-0.01-1.28,0-2.56,0-3.83c0-1.83-0.12-1.96-1.94-1.96c-3.71-0.01-7.41,0.01-11.11-0.01c-0.45-0.01-1.28-0.14-1.31-0.31
			c-0.15-0.93-0.2-1.92-0.05-2.84c0.04-0.22,0.97-0.41,1.49-0.42c2.91-0.04,5.82-0.03,8.73-0.02c1.07,0.01,1.65-0.33,1.56-1.53
			c-0.08-1.19-0.08-2.38,0-3.57c0.09-1.21-0.46-1.52-1.56-1.51c-2.6,0.05-5.2,0.01-7.8,0.02c-2.91,0.01-2.51,0.07-2.61-2.55
			C120.75,266.51,121.26,266.19,122.49,266.21"/>
	</g>
	<g>
		<path class="st0" d="M211.64,276.81c-0.2-0.01-0.61-0.62-0.54-0.82c0.81-2.3,1.68-4.58,2.54-6.86c0.14-0.02,0.28-0.03,0.42-0.05
			c0.93,2.5,1.85,5.01,2.87,7.77C214.96,276.85,213.3,276.88,211.64,276.81 M218.03,260.64c-0.23-0.57-0.71-1.05-1.07-1.56h-6.09
			c-0.36,0.42-0.87,0.77-1.07,1.26c-3.56,8.7-7.06,17.41-10.61,26.1c-0.37,0.91-0.08,1.23,0.82,1.22c1.23-0.01,2.47,0.02,3.71-0.01
			c2.99-0.06,2.75,0.64,3.97-2.79c0.36-1.03,0.94-1.46,2.05-1.42c2.07,0.07,4.16,0.18,6.22-0.02c2.48-0.24,4.19,0.32,4.66,3.04
			c0.16,0.93,0.85,1.23,1.77,1.21c1.63-0.03,3.26,0,4.9-0.01c1.46-0.01,1.61-0.24,1.04-1.64
			C224.9,277.56,221.48,269.09,218.03,260.64"/>
	</g>
	<g>
		<path class="st0" d="M60.56,274.43c-1.58,0.13-3.17,0.08-4.76,0.1c-0.7,0.01-1.03-0.33-1.01-1.06c0.03-1.1,0.01-2.21,0.01-3.31
			c0-1.06,0.03-2.12-0.01-3.17c-0.04-0.78,0.29-1.19,1.06-1.17c1.63,0.03,3.27-0.02,4.88,0.17c2.06,0.24,3.16,1.94,3.09,4.51
			C63.76,272.74,62.56,274.27,60.56,274.43 M64.08,259.76c-1.03-0.32-2.12-0.46-3.18-0.69H48.19c-0.25,0.48-0.71,0.95-0.72,1.42
			c-0.04,8.6-0.03,17.2-0.04,25.8c0,0.91,0.36,1.4,1.33,1.38c1.55-0.03,3.09-0.04,4.63,0c1.04,0.02,1.42-0.46,1.4-1.45
			c-0.03-1.27,0.03-2.56-0.02-3.83c-0.03-0.87,0.35-1.19,1.17-1.17c1.24,0.02,2.47,0.02,3.71-0.01c6.71-0.14,10.48-3.13,11.42-9.33
			C71.88,266.69,69.53,261.47,64.08,259.76"/>
	</g>
	<g>
		<path class="st0" d="M97.44,259.08c-0.25,0.6-0.72,1.2-0.72,1.81c-0.06,4.44-0.03,8.89-0.04,13.34c0,0.79,0.03,1.6-0.12,2.37
			c-0.61,3.15-2.6,4.64-5.94,4.53c-3.25-0.11-5.16-1.67-5.35-4.95c-0.25-4.26-0.16-8.53-0.2-12.8c-0.01-0.93,0.06-1.86-0.03-2.77
			c-0.05-0.52-0.37-1.02-0.56-1.52h-6.09c-0.18,0.47-0.53,0.93-0.53,1.4c-0.03,5.38-0.14,10.77,0.06,16.14
			c0.13,3.7,1.63,6.92,4.76,9.15c3.44,2.46,7.32,2.81,11.35,2.14c5.28-0.87,9.46-5.18,9.73-10.49c0.29-5.63,0.21-11.28,0.23-16.92
			c0-0.48-0.47-0.95-0.72-1.43H97.44z"/>
	</g>
	<g>
		<path class="st0" d="M174.99,266.25c1.8-0.08,3.62-0.02,5.43-0.02c1.88,0,1.89,0,1.89,1.9c0,5.91,0,11.82,0,17.73
			c0,1.65,0.15,1.8,1.83,1.8c1.19,0.01,2.38,0,3.57,0c1.85,0,1.96-0.11,1.96-1.93c0-6.04,0.02-12.09-0.02-18.13
			c0-1.03,0.33-1.42,1.37-1.39c1.98,0.06,3.98-0.04,5.95,0.04c1.19,0.05,1.56-0.42,1.51-1.55c-0.06-1.37,0.04-2.74-0.04-4.1
			c-0.03-0.52-0.36-1.02-0.55-1.53h-23.83c-0.19,0.51-0.52,1.01-0.55,1.53c-0.08,1.36,0.02,2.74-0.04,4.1
			C173.42,265.83,173.8,266.31,174.99,266.25"/>
	</g>
	<g>
		<path class="st0" d="M451.18,256.19h-5.82c-0.52,0.56-1.18,1.04-1.52,1.69c-2.25,4.32-4.42,8.67-6.62,13.02
			c-0.21,0.42-0.45,0.82-0.81,1.49c-0.37-0.6-0.63-0.96-0.83-1.36c-2.21-4.38-4.39-8.77-6.63-13.14c-0.32-0.63-0.88-1.14-1.33-1.7
			h-6.09c-0.25,0.47-0.71,0.95-0.72,1.43c-0.04,8.6-0.03,17.19-0.03,25.8c-0.01,1.02,0.48,1.4,1.47,1.37
			c1.37-0.05,2.73-0.01,4.1-0.01c1.6,0,1.76-0.15,1.76-1.73c0.01-3.71,0-7.41,0.01-11.12c0-0.35,0.06-0.7,0.09-1.06
			c1.76,3.05,3.34,6.08,4.78,9.19c0.66,1.43,1.52,2.2,3.14,1.94c0.26-0.04,0.53-0.04,0.79,0c1.36,0.16,2.17-0.41,2.76-1.68
			c1.5-3.21,3.15-6.35,4.73-9.53c0.11,0.02,0.22,0.03,0.33,0.05v1.37c0,3.66,0.03,7.32-0.01,10.98c-0.02,1.19,0.41,1.67,1.63,1.59
			c1.31-0.08,2.65-0.08,3.97,0c1.28,0.07,1.68-0.45,1.68-1.7c-0.04-8.42-0.01-16.85-0.06-25.27
			C451.92,257.28,451.43,256.73,451.18,256.19"/>
	</g>
	<g>
		<path class="st0" d="M471.1,273.92c-0.15-0.01-0.47-0.55-0.4-0.73c0.83-2.33,1.72-4.65,2.59-6.97c0.14,0,0.28,0,0.42-0.01
			c0.92,2.48,1.84,4.96,2.87,7.74C474.56,273.95,472.82,273.97,471.1,273.92 M477.67,257.75c-0.23-0.57-0.71-1.04-1.07-1.56h-6.09
			c-0.36,0.42-0.87,0.78-1.07,1.26c-3.55,8.69-7.07,17.41-10.61,26.1c-0.37,0.91-0.08,1.23,0.82,1.22c1.24,0,2.47,0.02,3.71,0
			c2.98-0.06,2.75,0.64,3.96-2.8c0.36-1.03,0.94-1.46,2.05-1.42c2.07,0.07,4.17,0.18,6.21-0.02c2.48-0.24,4.19,0.33,4.66,3.04
			c0.16,0.93,0.85,1.23,1.77,1.21c1.63-0.04,3.26,0,4.89-0.01c1.46-0.01,1.61-0.24,1.05-1.64
			C484.53,274.67,481.11,266.2,477.67,257.75"/>
	</g>
	<g>
		<path class="st0" d="M401.9,277.68c-3.31,0.04-6.61,0.01-9.92,0.01c-2.05,0-2.05,0-2.05-2.11c0-5.86,0.02-11.72-0.04-17.58
			c-0.01-0.61-0.47-1.21-0.73-1.81h-5.82c-0.25,0.52-0.71,1.03-0.71,1.55c-0.05,8.55-0.03,17.1-0.03,25.65
			c0,0.9,0.33,1.39,1.31,1.39c6.13-0.02,12.25-0.02,18.38,0c0.92,0,1.26-0.41,1.24-1.28c-0.02-1.41-0.06-2.82,0.02-4.23
			C403.61,278.04,403.06,277.66,401.9,277.68"/>
	</g>
	<g>
		<path class="st0" d="M357.54,274.08c-0.15,0-0.46-0.55-0.4-0.73c0.83-2.33,1.72-4.65,2.59-6.97c0.14-0.01,0.28-0.01,0.42-0.01
			c0.92,2.48,1.83,4.96,2.87,7.74C361,274.11,359.27,274.13,357.54,274.08 M366.69,283.74c0.16,0.93,0.86,1.23,1.77,1.21
			c1.63-0.03,3.26-0.01,4.9-0.01c1.46-0.01,1.61-0.24,1.04-1.64c-3.42-8.46-6.84-16.93-10.28-25.38c-0.24-0.57-0.71-1.04-1.07-1.56
			h-6.09c-0.36,0.42-0.86,0.78-1.06,1.26c-3.55,8.69-7.06,17.4-10.61,26.1c-0.37,0.91-0.08,1.23,0.82,1.22
			c1.23-0.01,2.47,0.02,3.7-0.01c2.99-0.06,2.75,0.64,3.97-2.79c0.36-1.03,0.94-1.46,2.04-1.42c2.07,0.06,4.16,0.18,6.21-0.02
			C364.51,280.46,366.22,281.02,366.69,283.74"/>
	</g>
	<g>
		<path class="st0" d="M180.98,377.86l-1.3-1.85l5.15-3.63l-5.42-0.07l-0.49-0.7l1.76-5.1l-5.14,3.62l-1.31-1.85l9.34-6.57
			l0.66,0.94l-2.66,7.64l8.07,0.04l0.68,0.97L180.98,377.86z"/>
		<path class="st0" d="M199.03,381.34l-1.48,1.31l-4.05-4.55l-2.19,1.95l3.38,3.8l-1.43,1.27l-3.38-3.8l-1.96,1.74l4.27,4.81
			l-1.48,1.31l-5.77-6.49l8.54-7.59L199.03,381.34z"/>
		<path class="st0" d="M200.3,393.92l-1.74-1.58l-2.19,2.39l-1.69-1.54l7.7-8.44l3.42,3.12c2.23,2.03,2.44,4.18,0.66,6.13
			c-1.23,1.35-2.66,1.72-4.16,1.17l-0.48,4.54l-2.05-1.87L200.3,393.92z M204.66,392.46c0.97-1.07,0.91-2.13-0.31-3.24l-1.6-1.46
			l-2.86,3.14l1.46,1.33C202.66,393.43,203.84,393.36,204.66,392.46z"/>
		<path class="st0" d="M209.05,398.21c2.15-2.99,5.3-3.48,8.29-1.32c1.84,1.33,2.67,2.98,2.78,4.71l-2.31,0.19
			c0-1.14-0.5-2.24-1.69-3.09c-1.83-1.31-3.77-1.01-5.14,0.9c-1.36,1.89-1.09,3.9,0.74,5.22c1.18,0.85,2.39,0.98,3.47,0.62
			l0.55,2.25c-1.67,0.44-3.43,0.21-5.33-1.16C207.41,404.37,206.9,401.19,209.05,398.21z"/>
		<path class="st0" d="M222.28,411.31l-1.89,1.44l-2.15-1.17l10.2-7.47l1.1,0.6l-0.71,12.63l-2.16-1.18l0.18-2.37L222.28,411.31z
			 M227.09,411.8l0.43-4.69l-3.69,2.92L227.09,411.8z"/>
		<path class="st0" d="M242.01,410.48c3.33,1.28,4.61,3.77,3.28,7.23c-1.29,3.36-3.85,4.78-7.29,3.46l-4.26-1.64l4.1-10.66
			L242.01,410.48z M243.09,416.86c0.79-2.04,0.2-3.64-1.84-4.42l-2.09-0.8l-2.59,6.73l2.15,0.83
			C240.6,419.91,242.24,419.07,243.09,416.86z"/>
		<path class="st0" d="M249.79,419.3c0.8-3.39,3.64-5.25,7.27-4.39c3.5,0.83,5.37,3.7,4.54,7.19c-0.8,3.37-3.65,5.23-7.28,4.37
			C250.82,425.64,248.96,422.79,249.79,419.3z M259.28,421.55c0.51-2.16-0.51-4.03-2.72-4.56c-2.1-0.5-3.92,0.6-4.46,2.86
			c-0.51,2.14,0.51,4.02,2.7,4.54C256.92,424.89,258.75,423.79,259.28,421.55z"/>
		<path class="st0" d="M278.17,418.18c3.56,0.19,5.55,2.17,5.35,5.87c-0.19,3.59-2.19,5.74-5.86,5.54l-4.56-0.25l0.62-11.41
			L278.17,418.18z M281.17,423.92c0.12-2.18-0.93-3.52-3.11-3.64l-2.23-0.12l-0.39,7.2l2.3,0.12
			C279.74,427.6,281.04,426.29,281.17,423.92z"/>
		<path class="st0" d="M296.71,417.99l0.1,1.97l-6.08,0.32l0.15,2.93l5.08-0.27l0.1,1.91l-5.08,0.27l0.14,2.62l6.42-0.34l0.1,1.97
			l-8.67,0.46l-0.6-11.4L296.71,417.99z"/>
		<path class="st0" d="M321.74,425.15l-2.21,0.5l-1.4-6.15l-2.13,4.99l-0.84,0.19l-4.05-3.57l1.39,6.13l-2.21,0.5l-2.53-11.14
			l1.12-0.25l6.06,5.37l3.11-7.46l1.15-0.26L321.74,425.15z"/>
		<path class="st0" d="M329.32,420.43l-0.16,2.38l-2.3,0.85l1.11-12.61l1.17-0.43l9.03,8.87l-2.31,0.85l-1.66-1.7L329.32,420.43z
			 M332.86,417.14l-3.25-3.42l-0.24,4.7L332.86,417.14z"/>
		<path class="st0" d="M345.62,412.33l-2.1,1.06l1.46,2.89l-2.04,1.03l-5.15-10.2l4.14-2.09c2.69-1.36,4.77-0.79,5.96,1.56
			c0.83,1.63,0.66,3.1-0.39,4.3l4.07,2.06l-2.47,1.25L345.62,412.33z M345.8,407.73c-0.65-1.29-1.67-1.61-3.14-0.87l-1.94,0.98
			l1.91,3.79l1.76-0.89C345.99,409.94,346.35,408.82,345.8,407.73z"/>
		<path class="st0" d="M352.13,399.25l5.97,9.74l-1.99,1.22l-5.97-9.74L352.13,399.25z"/>
		<path class="st0" d="M362.26,405.37l-0.46-2.11c1.4-0.25,2.64-0.69,3.74-1.49c1.04-0.75,1.37-1.56,0.84-2.29
			c-0.54-0.71-1.36-0.47-2.83,0.21c-2.33,1.07-4.15,1.45-5.48-0.38c-1.22-1.68-0.88-3.65,1.44-5.33c1.4-1.02,2.78-1.58,4-1.8
			l0.36,2.1c-1.01,0.23-2.13,0.65-3.15,1.38c-1.05,0.76-1.26,1.58-0.84,2.15c0.53,0.74,1.55,0.38,3.18-0.36
			c2.09-0.95,3.82-1.33,5.14,0.5c1.38,1.9,0.9,3.75-1.39,5.41C365.2,404.54,363.95,405.03,362.26,405.37z"/>
		<path class="st0" d="M370.33,393.24c-2.43-2.75-2.22-5.93,0.55-8.38c1.7-1.5,3.49-1.94,5.21-1.66l-0.32,2.3
			c-1.11-0.25-2.3,0-3.39,0.96c-1.69,1.49-1.82,3.45-0.26,5.21c1.54,1.75,3.56,1.93,5.25,0.44c1.09-0.96,1.49-2.11,1.37-3.24
			l2.32-0.04c0.05,1.73-0.55,3.39-2.31,4.94C375.97,396.2,372.76,395.99,370.33,393.24z"/>
		<path class="st0" d="M381.6,383.04c-2.56-2.36-2.8-5.74-0.27-8.48c2.44-2.65,5.85-2.87,8.49-0.45c2.55,2.35,2.77,5.74,0.25,8.49
			C387.63,385.24,384.24,385.47,381.6,383.04z M388.21,375.87c-1.63-1.5-3.77-1.53-5.3,0.14c-1.46,1.59-1.39,3.72,0.31,5.28
			c1.62,1.49,3.76,1.52,5.28-0.14C389.96,379.55,389.9,377.42,388.21,375.87z"/>
		<path class="st0" d="M396.5,373.59l-1.07-1.87c1.26-0.66,2.32-1.44,3.13-2.53c0.77-1.02,0.85-1.89,0.13-2.44
			c-0.72-0.52-1.44-0.05-2.64,1.04c-1.91,1.71-3.54,2.61-5.34,1.26c-1.66-1.24-1.92-3.22-0.2-5.52c1.04-1.39,2.19-2.33,3.29-2.9
			l0.97,1.9c-0.9,0.52-1.85,1.25-2.6,2.25c-0.78,1.04-0.74,1.88-0.17,2.3c0.73,0.54,1.6-0.1,2.93-1.29c1.71-1.53,3.26-2.4,5.06-1.05
			c1.88,1.41,1.97,3.32,0.28,5.57C399.07,371.93,398.02,372.76,396.5,373.59z"/>
	</g>
</g>
</svg>
