<svg width="223" height="236" viewBox="0 0 223 236" fill="none" xmlns="http://www.w3.org/2000/svg">
<path d="M220.221 94.8393C219.181 87.8393 217.611 80.3993 215.271 73.1293C204.841 40.8193 179.031 11.9993 115.961 40.8493C135.011 37.1693 154.411 48.2893 171.321 63.7993C200.291 90.3693 221.941 129.809 221.941 129.809C221.941 129.809 223.051 113.959 220.221 94.8393Z" fill="black"/>
<path d="M171.321 63.7993C154.411 48.2893 135.011 37.1593 115.961 40.8493C115.961 40.8493 117.441 40.7893 119.871 40.9793C132.421 41.7293 142.501 46.1193 150.101 54.1793C150.191 54.2693 150.271 54.3594 150.361 54.4494C150.481 54.5794 150.611 54.6993 150.731 54.8293C150.751 54.8493 150.761 54.8694 150.781 54.8894C152.721 56.9594 154.531 59.3393 156.131 62.0693C156.231 62.2293 156.321 62.3993 156.421 62.5693C160.661 70.0193 163.361 80.0194 163.091 93.4394C163.091 93.4894 163.091 93.5494 163.081 93.5994C163.061 94.2794 163.041 94.9793 163.011 95.6793C163.001 95.8793 163.001 96.0693 162.991 96.2693C162.521 105.739 160.611 116.829 156.821 129.819H162.861H221.961C221.941 129.809 200.281 90.3693 171.321 63.7993Z" fill="black"/>
<path d="M62.2299 93.5898C60.4399 106.58 60.6999 119.33 60.9999 125.67C61.1199 128.28 61.2599 129.81 61.2599 129.81C113.51 128.36 152.61 101.06 163.06 93.5898H62.2299V93.5898Z" fill="black"/>
<path d="M61.2598 129.81H156.79C160.58 116.82 162.49 105.73 162.96 96.2598C162.97 96.1398 163 95.2098 163.02 94.4798C163.04 94.0398 163.05 93.6698 163.05 93.5898C152.61 101.06 113.51 128.36 61.2598 129.81Z" fill="black"/>
<path d="M215.52 73.2095C210.68 57.1995 203.11 43.4695 192.77 32.0895C177.59 15.3895 158.14 5.23952 134.47 1.57952C132.81 1.39952 131.19 1.27953 129.61 1.22953C88.7902 -0.250467 71.2702 37.6195 64.8802 72.7095H64.9002C64.8202 73.1195 64.7302 73.5395 64.6502 73.9495C63.4702 80.7095 62.6902 87.3395 62.2402 93.5495C62.4902 91.8095 62.7702 90.1195 63.0902 88.4595C63.1402 88.2095 63.1802 87.9595 63.2302 87.7195C63.5402 86.1495 63.8802 84.6195 64.2602 83.1195C64.3302 82.8295 64.4002 82.5495 64.4802 82.2595C64.8602 80.7895 65.2702 79.3495 65.7102 77.9595C65.7902 77.7095 65.8702 77.4695 65.9502 77.2195C66.4202 75.7995 66.9102 74.4095 67.4402 73.0695C70.4502 65.4795 74.5102 59.1895 79.6202 54.2195C88.7702 45.3095 100.89 40.8495 115.96 40.8495C179.03 11.9995 204.84 40.8195 215.27 73.1295C217.62 80.3995 219.18 87.8295 220.22 94.8395C219.15 87.1995 217.58 79.9995 215.52 73.2095Z" fill="black"/>
<path d="M86.21 178.409C69.99 170.799 52.76 159.019 35.62 141.149C24.09 129.119 12.59 114.339 1.47 96.1895C1.26 97.6795 1.07998 99.1894 0.919983 100.699C0.879983 101.049 0.839998 101.399 0.809998 101.749C0.679998 103.069 0.559991 104.399 0.459991 105.729C0.399991 106.589 0.339978 107.459 0.289978 108.329C0.229978 109.329 0.169974 110.329 0.129974 111.339C0.0599744 113.339 0 115.359 0 117.409C0 119.519 0.0399951 121.609 0.119995 123.679C0.159995 124.799 0.239998 125.889 0.309998 126.989C0.359998 127.899 0.400001 128.819 0.470001 129.729C0.590001 131.209 0.739994 132.669 0.899994 134.119C0.949994 134.599 0.989988 135.099 1.04999 135.579C1.24999 137.269 1.48998 138.939 1.75998 140.589C1.78998 140.809 1.81999 141.029 1.85999 141.249C1.91999 141.599 1.98999 141.939 2.04999 142.289C3.26999 149.389 5.01999 156.169 7.32999 162.589C7.63999 162.809 7.99998 163.069 8.38998 163.339C8.46998 163.389 8.54 163.439 8.62 163.499C23.57 173.879 88.83 214.319 166.05 189.319C166.48 189.179 166.91 189.049 167.34 188.909C170.15 188.139 172.93 187.249 175.69 186.259C165.16 189.329 127.08 197.899 86.21 178.409Z" fill="black"/>
<path d="M31.4805 32.82C21.7805 42.93 14.3505 54.41 9.15048 67.22H9.11047C8.87047 67.8 8.67046 68.41 8.44046 69C8.23046 69.54 8.03047 70.08 7.83047 70.62C6.47047 74.3 5.29047 78.08 4.29047 81.97C4.22047 82.24 4.15047 82.51 4.08047 82.78C3.75047 84.11 3.43047 85.45 3.14047 86.81C3.10047 87 3.06048 87.2 3.02048 87.39C2.61048 89.36 2.25047 91.35 1.92047 93.37C1.86047 93.75 1.80048 94.14 1.74048 94.52C1.65048 95.08 1.55047 95.63 1.48047 96.19L1.52048 96.25C12.6305 114.36 24.1105 129.13 35.6305 141.15C52.7705 159.02 71.9405 172.45 89.3305 179.84C85.8305 178.28 84.7205 177.22 83.9905 176.6C73.3805 167.48 66.3705 155.1 62.9105 139.5C62.6505 138.31 62.4005 137.1 62.1805 135.87C62.1005 135.42 62.0205 134.98 61.9405 134.53C61.6805 132.98 61.4505 131.42 61.2505 129.82C61.2505 129.82 61.1205 128.29 60.9905 125.68C60.6905 119.34 60.4305 106.6 62.2205 93.6C62.4705 91.84 62.4705 91.81 62.2305 93.55C62.6805 87.34 63.4605 80.71 64.6405 73.95C64.7205 73.54 64.8005 73.12 64.8905 72.71H64.8705C71.2605 37.62 88.7805 -0.250004 129.6 1.23C131.18 1.29 132.81 1.39999 134.46 1.57999C127.81 0.549987 120.84 0 113.51 0C79.8205 0.01 52.4705 10.94 31.4805 32.82Z" fill="black"/>
<path d="M169.3 229.99C169.75 229.85 170.19 229.69 170.63 229.55C171.14 229.38 171.66 229.22 172.17 229.03C172.23 229.01 172.3 228.98 172.36 228.96C184.51 225.22 203.97 218.14 218.74 207.69V163.16C218.67 163.21 218.6 163.26 218.52 163.31C218.52 163.24 218.52 163.18 218.52 163.11C204.42 173.16 190.77 180.65 177.56 185.59C176.94 185.82 176.31 186.02 175.69 186.24C172.93 187.22 170.14 188.12 167.34 188.89C166.91 189.03 166.48 189.16 166.05 189.3C88.8301 214.3 23.5701 173.86 8.62009 163.48C8.54009 163.42 8.47008 163.38 8.39008 163.32C8.00008 163.05 7.64008 162.79 7.33008 162.57C12.9601 178.21 21.8101 191.82 33.9401 203.37C33.9701 203.4 33.9901 203.42 34.0201 203.45C56.7101 225 85.9601 235.78 121.77 235.78C136.24 235.78 149.87 234.4 162.68 231.67C162.53 231.71 162.4 231.74 162.27 231.77C162.58 231.7 162.94 231.62 163.36 231.53C164.37 231.31 165.36 231.07 166.35 230.81C166.7 230.72 167.03 230.61 167.38 230.51C168.03 230.36 168.67 230.18 169.3 229.99Z" fill="black"/>
</svg>
